<?xml version="1.0" standalone="no"?>
<!DOCTYPE svg PUBLIC "-//W3C//DTD SVG 1.1//EN" "http://www.w3.org/Graphics/SVG/1.1/DTD/svg11.dtd" >
<svg xmlns="http://www.w3.org/2000/svg">
<metadata>Generated by IcoMoon</metadata>
<defs>
<font id="pmro" horiz-adv-x="1024">
<font-face units-per-em="1024" ascent="960" descent="-64" />
<missing-glyph horiz-adv-x="1024" />
<glyph unicode="&#x20;" horiz-adv-x="0" d="" />
<glyph unicode="&#xe608;" glyph-name="pessoa-1" d="M516 230q-46 0-87 23t-73 61q-30 36-49 82t-23 92q-10 2-19 8t-15 14q-6 6-10 16t-4 20v84q0 18 13 32t23 20v76q0 30 10 57t28 45q16 20 41 31t53 13q12 4 55 18t93 14q40 0 70-12t50-34q22-22 32-55t10-77v-68q22-2 35-6t21-12 11-18 3-24v-84q0-12-3-21t-9-17q-6-6-13-12t-15-8q-4-46-22-92t-48-84q-32-36-72-59t-86-23v0zM552 902q-50 0-93-16t-45-16h-6q-22 0-41-9t-33-23-21-35-7-45v-84q0-6-3-10t-7-6q-8-4-16-13t-8-15v-84q0-10 9-18t19-8q8 0 13-5t5-13q0-40 15-83t43-77q26-34 62-56t78-22q40 0 75 22t61 56q28 34 43 77t15 83q0 8 5 13t11 5q12 0 17 8t5 18v84q0 14-6 20t-44 6q-8 0-13 5t-5 13v84q0 36-8 63t-22 45q-16 18-40 27t-58 9v0zM834-40q-6 0-11 5t-5 13v238q0 8 5 13t11 5q8 0 13-5t5-13v-238q0-8-5-13t-13-5v0zM954 80h-240q-6 0-11 5t-5 13q0 6 5 11t11 5h240q6 0 11-5t5-11q0-8-5-13t-11-5v0zM70-36q-6 0-11 5t-5 13q0 44 16 81t46 65q30 26 73 40t95 14h54l58 90q4 6 11 8t13-2 7-11-1-13l-64-98q-2-4-6-6t-8-2h-64q-38 0-73-10t-63-30q-26-20-43-52t-17-74q0-8-5-13t-13-5v0z" />
<glyph unicode="&#xe60b;" glyph-name="mais" d="M512-38q-100 0-189 38t-155 104-104 155-38 189 38 189 104 155 155 104 189 38 189-38 155-104 104-155 38-189-38-189-104-155-155-104-189-38v0zM512 900q-94 0-176-35t-144-97-97-144-35-176 35-176 97-144 144-97 176-35 176 35 144 97 97 144 35 176-35 176-97 144-144 97-176 35v0zM696 422h-376q-6 0-11 5t-5 13q0 6 5 11t11 5h376q6 0 11-5t5-11q0-8-5-13t-11-5v0zM508 234q-6 0-11 5t-5 13v376q0 6 5 11t11 5q8 0 13-5t5-11v-376q0-8-5-13t-13-5v0z" />
<glyph unicode="&#xe60c;" glyph-name="livro-pessoa" d="M904-64h-836q-6 0-11 5t-5 13v988q0 8 5 13t11 5h794q24 0 44-9t36-25q14-16 22-39t8-51v-810q0-16-4-32t-12-30q-8-12-21-20t-31-8v0zM86-30h818q20 0 27 21t7 35v810q0 16-4 33t-14 29-24 20-34 8h-776v-956zM170-46q-6 0-11 5t-5 11v956q0 6 5 11t11 5q8 0 13-5t5-11v-956q0-6-5-11t-13-5v0zM562 500q-24 0-47 9t-39 27q-18 16-27 39t-9 47q0 26 9 49t27 39q16 18 39 27t47 9q26 0 49-9t39-27q18-16 27-39t9-49q0-24-9-47t-27-39q-16-18-39-27t-49-9v0zM562 712q-18 0-34-7t-28-19-19-28-7-36q0-18 7-34t19-28 28-19 34-7q20 0 36 7t28 19 19 28 7 34q0 20-7 36t-19 28-28 19-36 7v0zM798 140v0 0h-470q-6 0-11 5t-5 13q0 62 17 112t51 86q32 36 79 55t103 19q58 0 104-19t78-53q34-34 52-84t18-112l1-1t1-3q0-8-5-13t-13-5v0zM346 174h434q-2 62-22 104t-52 70q-30 26-68 37t-76 11-75-11-69-37q-30-28-50-70t-22-104v0z" />
<glyph unicode="&#xe60d;" glyph-name="agenda" d="M836-64h-760q-6 0-11 5t-5 13v988q0 8 5 13t11 5h760q16 0 30-6t24-18q12-10 18-25t6-33v-852q0-16-6-32t-16-30q-10-12-24-20t-32-8v0zM94-30h742q10 0 18 5t12 13q6 8 9 18t3 20v852q0 12-3 20t-9 14q-4 6-12 10t-18 4h-742v-956zM998 686h-102q-8 0-13 5t-5 13v136q0 8 5 13t13 5h102q8 0 13-5t5-13v-136q0-8-5-13t-13-5v0zM914 722h68v102h-68v-102zM998 550h-102q-8 0-13 5t-5 13v136q0 8 5 13t13 5h102q8 0 13-5t5-13v-136q0-8-5-13t-13-5v0zM914 584h68v102h-68v-102zM998 414h-102q-8 0-13 5t-5 11v138q0 6 5 11t13 5h102q8 0 13-5t5-11v-138q0-6-5-11t-13-5v0zM914 448h68v102h-68v-102zM998 278h-102q-8 0-13 5t-5 11v136q0 8 5 13t13 5h102q8 0 13-5t5-13v-136q0-6-5-11t-13-5v0zM914 312h68v102h-68v-102zM998 140h-102q-8 0-13 5t-5 13v136q0 8 5 13t13 5h102q8 0 13-5t5-13v-136q0-8-5-13t-13-5v0zM914 174h68v104h-68v-104zM998 4h-102q-8 0-13 5t-5 13v136q0 6 5 11t13 5h102q8 0 13-5t5-11v-136q0-8-5-13t-13-5v0zM914 38h68v102h-68v-102zM162 858h-136q-8 0-13 5t-5 11q0 8 5 13t13 5h136q8 0 13-5t5-13q0-6-5-11t-13-5v0zM162 722h-136q-8 0-13 5t-5 11q0 8 5 13t13 5h136q8 0 13-5t5-13q0-6-5-11t-13-5v0zM162 584h-136q-8 0-13 5t-5 13q0 6 5 11t13 5h136q8 0 13-5t5-11q0-8-5-13t-13-5v0zM162 448h-136q-8 0-13 5t-5 13q0 6 5 11t13 5h136q8 0 13-5t5-11q0-8-5-13t-13-5v0zM162 312h-136q-8 0-13 5t-5 11q0 8 5 13t13 5h136q8 0 13-5t5-13q0-6-5-11t-13-5v0zM162 174h-136q-8 0-13 5t-5 13 5 13 13 5h136q8 0 13-5t5-13-5-13-13-5v0zM162 38h-136q-8 0-13 5t-5 13q0 6 5 11t13 5h136q8 0 13-5t5-11q0-8-5-13t-13-5v0z" />
<glyph unicode="&#xe60e;" glyph-name="pessoa-2" d="M502 246q-46 0-88 24t-70 60q-34 38-52 84t-22 90l-18 9t-14 13q-8 8-11 17t-5 19l2 86q-2 18 11 31l21 21 2 76q-2 30 9 56t27 46q20 20 43 31t53 11q10 6 55 19t93 13q40 0 70-11t52-35q18-22 30-55t10-75l2-70q20 0 34-5t20-11q8-8 10-19t4-23l-2-86q2-10-2-19t-8-17q-6-8-13-13t-17-9q0-46-20-92t-48-82q-32-38-71-61t-87-23v0zM540 918q-54 0-96-15t-44-15l-6-2q-24 0-42-8t-32-22q-12-16-21-36t-7-44l-2-86q2-4-1-8t-5-6q-10-6-18-14t-10-14l2-86q-2-10 8-18t20-8q8 0 12-5t6-11q-2-42 15-84t41-76q30-36 65-58t79-22q38 0 74 22t60 58q28 34 42 76t16 84q-2 6 4 11t12 5q12 0 17 8t7 18l-2 86q2 14-5 20t-45 6q-8 0-12 5t-6 11l2 86q-2 36-9 63t-25 45q-14 16-39 25t-55 9v0zM68-56q-4 0-10 5t-4 11l-2 48q2 44 15 80t43 60q26 26 68 39t90 13h58l62 92q6 6 12 8t14-4q4-2 6-9t-4-13l-68-102q-4-2-7-4t-9-2h-62q-46 0-79-11t-57-31q-22-20-35-49t-11-67l-2-48q2-6-4-11t-12-5h-2zM956-56q-6 0-12 5t-4 11l-2 48q2 44-16 74t-44 48q-30 18-64 27t-72 9h-62q-8 0-10 2t-8 6l-64 106q-6 6-3 13t7 11q8 4 14 2t10-8l60-98h58q50 0 94-14t72-38q32-26 47-61t17-79l-2-48q2-6-4-11t-10-5h-2zM504 76h-3t-3 2l-174 90q-4 2-7 9t3 13q0 6 8 8t12 0l166-86 164 86q8 2 14 0t10-8q2-6 1-13t-9-9l-174-90q-2-2-3-2h-5z" />
<glyph unicode="&#xe611;" glyph-name="avanco" d="M232 76q-2 0-3 1t-3 1q-6 2-10 8t-2 14l104 316q2 6 8 9t14 1q6-2 9-8t1-14l-102-316q-2-4-7-8t-9-4v0zM634 248q-6 0-10 3t-6 7l-62 164-184 52q-6 0-10 7t-2 13 8 10 14 2l192-54q4-2 7-4t5-6l64-172q2-6-1-12t-9-10h-6zM168 616q-4 0-8 2t-6 6q-4 6-3 13t7 11l166 112q6 2 12 2t10-4l38-40q6-4 6-11t-6-13q-4-4-11-4t-13 4l-28 30-154-106q-2 0-5-1t-5-1v0zM600 554h-84q-4 0-7 2t-5 4l-100 96q-6 6-6 13t6 11q4 6 11 6t13-6l94-92h78q8 0 13-5t5-11q0-8-5-13t-13-5v0zM484 716q-12 0-23 5t-19 13-13 19-5 23 5 23 13 19 19 13 23 5q14 0 24-5t18-13 13-19 5-23-5-23-13-19-18-13-24-5v0zM484 802q-10 0-17-7t-7-19q0-10 7-18t17-8q12 0 19 8t7 18q0 12-7 19t-19 7v0zM856 60q-8 0-13 5t-5 11v70h-306v-70q0-6-5-11t-13-5q-6 0-11 5t-5 11v86q0 8 5 13t11 5h342q8 0 13-5t5-13v-86q0-6-5-11t-13-5v0z" />
<glyph unicode="&#xe631;" glyph-name="navegador-1" d="M1006 22h-990q-6 0-12 5t-4 11l-2 820q2 6 6 11t14 5h986q10 0 14-5t6-11l-2-820q2-6-4-11t-12-5v0zM32 56h958l-2 784h-954l-2-784zM990 670h-958q-4 0-10 5t-4 11q-2 8 4 13t10 5h958q4 0 10-5t4-13q2-6-4-11t-10-5v0zM760 122q-28 0-55 12t-45 32q-22 18-32 45t-12 57q2 30 12 56t32 46q18 20 45 31t55 11q32 0 58-11t48-31q18-20 30-46t10-56q2-30-10-57t-30-45q-22-20-48-32t-58-12v0zM762 378q-24 0-43-8t-37-24q-12-14-22-35t-8-43q-2-24 8-44t22-34q18-16 37-25t43-9q22 0 43 9t35 25q16 14 24 34t10 44q-2 22-10 43t-24 35q-14 16-35 24t-43 8v0zM774 212l-4 1t-6 3l-44 40q-4 4-5 11t5 13q4 4 12 5t12-5l32-28 156 156q8 4 14 4t14-4q2-6 3-13t-7-11l-168-168-6-3t-8-1v0zM136 764q-2-10-7-16t-17-6q-6 0-13 6t-5 16q-2 8 5 15t13 7q12 0 17-7t7-15v0zM220 764q2-10-6-16t-14-6q-10 0-16 6t-8 16q2 8 8 15t16 7q6 0 14-7t6-15v0zM306 764q-2-10-7-16t-15-6q-8 0-15 6t-5 16q-2 8 5 15t15 7q10 0 15-7t7-15v0z" />
<glyph unicode="&#xe641;" glyph-name="baixo-1" d="M512 302q-2 0-4 1t-4 3l-470 256q-6 2-8 9t2 13 10 8 12-2l462-250 462 250q6 4 12 2t10-8 2-13-8-9l-470-256q-2-2-4-3t-4-1v0z" />
<glyph unicode="&#xe642;" glyph-name="baixo-2" d="M512 218h-4t-4 2l-470 256q-6 4-8 10t2 12q4 8 10 10t12-2l462-252 462 252q6 4 12 2t10-10q4-6 2-12t-8-10l-470-256q-2-2-4-2h-4zM512 388q-2 0-4 1t-4 1l-470 256q-6 4-8 11t2 13 10 8 12-2l462-252 462 252q6 4 12 2t10-8 2-13-8-11l-470-256q-2 0-4-1t-4-1v0z" />
<glyph unicode="&#xe644;" glyph-name="baixo-3" d="M512 324q-2 0-4 1t-4 1l-300 172q-6 2-7 9t1 13q4 6 11 8t13-2l290-166 290 166q6 4 13 2t11-8 2-13-8-9l-300-172q-2 0-4-1t-4-1v0zM512 926q98 0 185-38t153-102q64-66 102-153t38-185-38-185-102-153q-66-64-153-102t-185-38-185 38-153 102q-64 66-102 153t-38 185 38 185 102 153q66 64 153 102t185 38v0zM512 960q-106 0-199-40t-163-110-110-163-40-199 40-199 110-163 163-110 199-40 199 40 163 110 110 163 40 199-40 199-110 163-163 110-199 40v0 0z" />
<glyph unicode="&#xe650;" glyph-name="esquerda-1" d="M640-38q-4 0-8 2t-6 6l-256 470q-4 4-4 8t4 8l256 470q2 6 9 8t13-2 8-10-2-12l-250-462 250-462q4-6 2-12t-8-10q-2-2-4-2h-4z" />
<glyph unicode="&#xe651;" glyph-name="esquerda-2" d="M554-38q-4 0-8 2t-6 6l-256 470q-2 4-2 8t2 8l256 470q4 6 10 8t12-2q8-4 10-10t-2-12l-252-462 252-462q4-6 2-12t-10-10q-2-2-4-2h-4zM726-38q-6 0-10 2t-6 6l-256 470q-2 4-2 8t2 8l256 470q4 6 11 8t13-2 8-10-2-12l-252-462 252-462q4-6 2-12t-8-10q-2-2-4-2h-4z" />
<glyph unicode="&#xe652;" glyph-name="esquerda-3" d="M576 132q-4 0-8 2t-6 6l-172 300q-2 4-2 8t2 8l172 300q2 6 9 7t13-1q6-4 8-11t-2-13l-166-290 166-290q4-6 2-13t-8-11q-2 0-4-1t-4-1v0zM512 926q98 0 185-38t153-102q64-66 102-153t38-185-38-185-102-153q-66-64-153-102t-185-38-185 38-153 102q-64 66-102 153t-38 185 38 185 102 153q66 64 153 102t185 38v0zM512 960q-106 0-199-40t-163-110-110-163-40-199 40-199 110-163 163-110 199-40 199 40 163 110 110 163 40 199-40 199-110 163-163 110-199 40v0 0z" />
<glyph unicode="&#xe660;" glyph-name="direita-1" d="M384-38h-4t-4 2q-6 4-8 10t2 12l250 462-250 462q-4 6-2 12t8 10 13 2 9-8l256-470q4-4 4-8t-4-8l-256-470q-2-4-6-6t-8-2v0z" />
<glyph unicode="&#xe661;" glyph-name="direita-2" d="M470-38h-4t-4 2q-8 4-10 10t2 12l252 462-252 462q-4 6-2 12t10 10q6 4 12 2t10-8l256-470q2-4 2-8t-2-8l-256-470q-2-4-6-6t-8-2v0zM298-38h-4t-4 2q-6 4-8 10t2 12l252 462-252 462q-4 6-2 12t8 10 13 2 11-8l256-470q2-4 2-8t-2-8l-256-470q-2-4-6-6t-10-2v0z" />
<glyph unicode="&#xe662;" glyph-name="direita-3" d="M448 132q-2 0-4 1t-4 1q-6 4-8 11t2 13l166 290-166 290q-4 6-2 13t8 11q6 2 13 1t9-7l172-300q2-4 2-8t-2-8l-172-300q-2-4-6-6t-8-2v0zM512 926q98 0 185-38t153-102q64-66 102-153t38-185-38-185-102-153q-66-64-153-102t-185-38-185 38-153 102q-64 66-102 153t-38 185 38 185 102 153q66 64 153 102t185 38v0zM512 960q-106 0-199-40t-163-110-110-163-40-199 40-199 110-163 163-110 199-40 199 40 163 110 110 163 40 199-40 199-110 163-163 110-199 40v0 0z" />
<glyph unicode="&#xe663;" glyph-name="direita-4" d="M896 548q-2 0-6 1t-4 3q-8 4-7 11t3 13l80 94-80 94q-2 4-3 11t7 13q4 4 12 3t10-5l88-104q2-4 3-11t-5-11l-84-106q-4-4-7-5t-7-1v0zM562 502q-4 0-6 1t-8 3q-2 4-4 11t6 13q30 36 72 65t86 49q46 22 93 33t97 11h84q8 0 12-5t6-13q-2-6-6-11t-12-5h-84q-46 0-89-10t-87-30q-40-20-79-47t-67-61q-6-2-8-3t-8-1h2zM46 202q-10 0-14 5t-6 11q2 8 6 13t14 5q44 0 98 12t102 32q52 20 94 47t72 57q2 6 10 6t12-4q6-6 6-13t-4-13q-32-32-76-61t-100-51q-50-22-108-34t-106-12v0zM896 104q-2 0-6 1t-4 3q-8 4-7 11t3 13l80 94-80 88q-2 6-3 13t7 11q4 4 12 4t10-6l88-98q2-4 3-10t-5-12l-84-106q-4-2-7-4t-7-2v0zM984 210h-90q-64 0-124 21t-112 55q-54 34-103 77t-99 87q-46 44-95 85t-97 73q-52 32-105 52t-117 20q-4 0-10 5t-4 11q-2 8 4 13t10 5q68 0 126-21t114-55q50-34 101-77t97-87q50-44 97-85t99-75q48-32 103-51t115-19h90q4 0 10-5t4-11q2-8-4-13t-10-5v0z" />
<glyph unicode="&#xe672;" glyph-name="arroba" d="M448 152q-46 0-81 19t-59 49q-22 30-34 67t-12 77q0 70 22 131t62 105q38 46 92 72t114 26q20 0 40-3t40-9 41-14 41-20q4-2 7-7t1-11l-42-252q-14-74-41-120t-61-70-69-32-61-8v0zM552 664q-54 0-101-23t-81-65q-34-40-54-95t-20-117q0-32 10-64t28-58q20-24 48-40t66-16q28 0 58 8t58 30 50 62 32 102q8 50 15 90t11 70q6 30 9 50t5 30q-16 10-33 16t-35 10q-16 6-33 8t-33 2v0zM470-60q-72 0-154 28t-150 82q-70 54-116 133t-46 181q0 162 55 275t137 183 179 102 179 32q98 0 183-43t149-109q62-68 98-150t36-162q0-86-13-149t-39-105q-26-44-66-65t-92-21q-36 0-66 23t-52 59q-22 34-34 75t-12 77q0 6 5 11t11 5q8 0 13-5t5-11q0-30 10-65t28-65 42-50 50-20q44 0 77 19t55 57 33 95 11 135q0 74-33 150t-91 138-137 102-171 40q-78 0-168-30t-168-96q-76-66-128-173t-52-259q0-94 43-167t107-121q64-50 140-76t142-26q94 0 139 21l45 21q6 4 13 3t11-7 3-13-5-11q-2 0-52-24t-154-24v0z" />
<glyph unicode="&#xe67e;" glyph-name="voltar" d="M512 926q98 0 185-38t153-102q64-66 102-153t38-185-38-185-102-153q-66-64-153-102t-185-38-185 38-153 102q-64 66-102 153t-38 185 38 185 102 153q66 64 153 102t185 38v0zM512 960q-106 0-199-40t-163-110-110-163-40-199 40-199 110-163 163-110 199-40 199 40 163 110 110 163 40 199-40 199-110 163-163 110-199 40v0 0zM486 258q-2 0-4 1t-4 1l-298 174q-4 2-6 6t-2 8 2 8 6 6l298 174q4 2 9 2t9-2q4-4 6-7t2-9v-344q0-6-2-9t-6-7q-2 0-5-1t-5-1v0zM222 448l248-142v284l-248-142zM760 258q-2 0-4 1t-4 1l-274 148q-4 2-6 6t-2 10v48q0 6 2 10t6 6l274 148q4 2 8 2t8-2q4-4 6-8t2-8v-344q0-6-2-9t-6-7q-2 0-4-1t-4-1v0zM504 434l238-130v288l-238-130v-28z" />
<glyph unicode="&#xe68c;" glyph-name="grafico-1" d="M68 960h34v-1024h-34v1024zM0 4h1024v-34h-1024v34zM494 72h-68q-6 0-11 5t-5 13v376q0 6 5 11t11 5h68q8 0 13-5t5-11v-376q0-8-5-13t-13-5v0zM444 106h34v342h-34v-342zM290 72h-68q-8 0-13 5t-5 13v204q0 8 5 13t13 5h68q8 0 13-5t5-13v-204q0-8-5-13t-13-5v0zM238 106h36v172h-36v-172zM700 72h-68q-8 0-13 5t-5 13v204q0 8 5 13t13 5h68q6 0 11-5t5-13v-204q0-8-5-13t-11-5v0zM648 106h34v172h-34v-172zM904 72h-68q-6 0-11 5t-5 13v410q0 6 5 11t11 5h68q8 0 13-5t5-11v-410q0-8-5-13t-13-5v0zM854 106h34v376h-34v-376zM178 352q-4 0-7 1t-7 5q-4 6-3 13t5 11l300 252q4 4 11 4t11-4l158-158 246 250q6 4 13 4t13-4q4-6 4-13t-4-11l-260-262q-2-2-6-4t-6-2v0q-4 0-7 2t-5 4l-158 158-286-242q-4-2-7-3t-5-1v0z" />
<glyph unicode="&#xe68d;" glyph-name="grafico-2" d="M136-64h-68q-6 0-11 5t-5 13v204q0 6 5 11t11 5h68q8 0 13-5t5-11v-204q0-8-5-13t-13-5v0zM86-30h34v170h-34v-170zM546-64h-68q-8 0-13 5t-5 13v614q0 6 5 11t13 5h68q8 0 13-5t5-11v-614q0-8-5-13t-13-5v0zM494-30h36v580h-36v-580zM750-64h-68q-6 0-11 5t-5 13v988q0 8 5 13t11 5h68q8 0 13-5t5-13v-988q0-8-5-13t-13-5v0zM700-30h34v956h-34v-956zM956-64h-68q-8 0-13 5t-5 13v614q0 6 5 11t13 5h68q6 0 11-5t5-11v-614q0-8-5-13t-11-5v0zM904-30h34v580h-34v-580zM342-64h-68q-8 0-13 5t-5 13v682q0 6 5 11t13 5h68q6 0 11-5t5-11v-682q0-8-5-13t-11-5v0zM290-30h34v648h-34v-648z" />
<glyph unicode="&#xe6ac;" glyph-name="alerta-1" d="M1006 68h-990q-6 0-12 5t-4 13l-2 108q2 14 5 28t15 24q6 12 18 20t24 12q16 4 27 15t21 33q6 24 11 64t3 100q2 80 31 149t81 121q50 50 120 80t148 30q80 0 148-30t122-80q50-52 80-121t28-149q2-64 8-103t18-63q6-22 20-32t26-14q14-4 26-12t24-18q8-12 15-25t5-29l2-108q-2-8-6-13t-14-5h2zM34 102h954l2 92q-2 8-5 17t-11 15q-6 6-15 11t-15 7q-28 8-45 25t-31 47q-8 30-15 73t-5 101q-2 72-28 135t-74 109q-46 48-110 75t-132 27q-74 0-136-27t-112-75q-44-46-72-109t-26-135q-2-60-6-104t-16-72q-8-30-26-46t-40-24q-10-2-16-7t-12-11q-2-6-6-15t-2-17l-2-92h2zM504-60q-32 0-58 12t-48 30q-18 20-30 47t-10 57q-2 6 4 11t12 5q8 0 12-5t6-11q-2-24 8-44t22-36q18-14 37-23t45-9q20 0 41 9t35 23q16 16 24 36t10 44q-2 6 4 11t12 5q8 0 12-5t6-11q-2-30-12-57t-32-47q-18-18-45-30t-55-12v0zM586 826q2 0 0 0t0 0q-10 2-13 7t-5 13q4 2 3 4t1 4q-2 14-7 26t-15 22q-8 8-21 14t-25 6q-18 0-29-6t-23-14q-6-10-13-22t-5-26q-2-2 0-4t0-4q2-8-3-13t-11-7q-8 0-13 4t-7 12q2 2 0 5t0 7q-2 20 7 39t21 33q16 14 34 22t42 8q18 0 38-8t32-22q16-14 23-33t9-39q-2-4-1-7t-3-5q2-8-4-12t-10-4h-2z" />
<glyph unicode="&#xe6b4;" glyph-name="bicicleta" horiz-adv-x="1058" d="M188 160q-38 0-73 15t-57 41q-28 24-42 58t-16 74q2 38 16 72t42 60q22 26 57 41t73 15q40 0 73-15t61-41q24-26 40-60t14-72q2-40-14-74t-40-58q-28-26-61-41t-73-15v0zM190 502q-34 0-61-12t-49-34q-20-20-33-48t-11-60q-2-32 11-60t33-48q22-22 49-34t61-12q30 0 59 12t47 34q24 20 35 48t13 60q-2 32-13 60t-35 48q-18 22-47 34t-59 12v0zM870 160q-36 0-71 15t-59 41q-28 24-42 58t-16 74q2 38 16 72t42 60q24 26 59 41t71 15q42 0 75-15t61-41q22-26 38-60t14-72q2-40-14-74t-38-58q-28-26-61-41t-75-15v0zM872 502q-34 0-61-12t-49-34q-20-20-33-48t-11-60q-2-32 11-60t33-48q22-22 49-34t61-12q30 0 59 12t47 34q24 20 35 48t13 60q-2 32-13 60t-35 48q-18 22-47 34t-59 12v0zM188 310q-4 0-9 2t-5 8q-4 4-2 9t4 9l258 256q0 2 3 3t3 3l300 64q4 0 10-2t8-6q4-6 2-11t-2-9l-258-300q0-2-4-4t-6-2l-302-20q2 0 1 0t1 0h-2zM452 566l-218-220 244 18 220 256-246-54zM872 330q-6 0-10 3t-8 9l-126 342q-4 6 0 12t8 10q8 2 14-1t10-9l126-342q4-6 1-13t-9-9q-4 0-4-1t-4-1h2zM488 330q-8 0-12 4t-6 12l-42 298q-2 6 3 12t11 8q8 0 13-4t7-12l42-298q2-6-3-12t-11-8h-2zM488 634h-138q-4 0-10 5t-4 11q-2 8 4 13t10 5h138q6 0 12-5t4-13q2-6-4-11t-12-5v0zM742 672l-6 2-54 30q-4 4-6 11t2 13q2 6 10 8t12-2l54-30q4-4 6-11t-2-13q-2-4-7-6t-7-2h-2z" />
<glyph unicode="&#xe6bb;" glyph-name="impressora-2" d="M820 482h-648q-8 0-12 5t-6 13l2 102q-2 6 4 11t10 5h652q4 0 10-5t4-11l2-102q-2-8-6-13t-12-5v0zM190 516h612l2 68h-616l2-68zM750-64h-326q-6 0-8 1l-6 3-146 138q-6 2-6 5t-2 7l2 410q-2 6 4 11t12 5h478q6 0 12-5t4-11l2-546q-2-8-6-13t-14-5v0zM430-30h304l2 512h-446l2-384 136-128h2zM958 278h-190q-6 0-12 5t-4 11q-2 8 4 13t12 5h172l-2 340h-850l-2-340h172q6 0 12-5t4-13q2-6-4-11t-12-5h-190q-4 0-10 5t-4 11l-2 376q2 6 6 11t12 5h886q8 0 12-5t6-11l-2-376q2-6-4-11t-10-5v0zM786 652h-546q-8 0-12 5t-6 13l2 272q-2 8 4 13t10 5h550q4 0 10-5t4-13l2-272q-2-8-6-13t-12-5v0zM258 686h510l2 240h-514l2-240zM444-46q-6 0-12 5t-4 11l-2 102h-134q-8 0-12 5t-6 13q2 6 6 11t12 5h152q8 0 12-5t6-11l-2-120q2-6-4-11t-10-5h-2zM530 172q-16 0-31 5t-23 13q-12 10-16 22t-6 26q2 8 6 13t12 5q6 0 12-5t4-13q2-22 18-27t26-5q4 0 23 5t17 27q2 14-6 20t-32 20l-22 8q-10 8-22 14t-18 12q-10 8-13 19t-5 25q2 16 6 28t16 20q8 10 23 15t31 5q18 0 31-5t25-15q8-8 14-20t4-28q2-6-4-11t-10-5q-10 0-14 5t-6 11q2 22-15 27t-23 5q-10 0-26-4t-18-28q2-12 8-19t34-19l16-10q16-6 26-12t20-14q4-8 10-18t4-26q2-14-5-26t-15-22q-12-8-25-13t-31-5v0zM532 396q-10 0-14 5t-6 13l2 34q-2 8 4 13t12 5q8 0 12-5t6-13l-2-34q2-8-4-13t-10-5v0zM530 124q-6 0-12 5t-4 11l-2 34q2 8 6 13t14 5q4 0 10-5t4-13l2-34q-2-6-6-11t-12-5v0z" />
<glyph unicode="&#xe6c7;" glyph-name="apresentacao" d="M922 262h-820q-6 0-11 5t-5 13v546q0 6 5 11t11 5h820q6 0 11-5t5-11v-546q0-8-5-13t-11-5v0zM120 296h784v512h-784v-512zM704-48q-4 0-8 2t-6 4l-158 236-156-236q-4-4-11-6t-13 2-7 11 3 13l170 256q6 6 15 6t15-6l170-256q4-6 2-13t-6-11q-4-2-6-2h-4zM972 910h-920q-8 0-13 5t-5 13q0 6 5 11t13 5h920q8 0 13-5t5-11q0-8-5-13t-13-5v0z" />
<glyph unicode="&#xe6d6;" glyph-name="livros" d="M938-64h-494q-26 0-57 12t-55 34q-28 24-43 56t-17 72l2 542q-2 2-1 3t-1 1q2 4 1 7t1 7q-2 30 7 47t21 25q16 8 33 11t41 3h408q8 0 12-5t6-13q-2-6-6-11t-12-5h-408q-24 0-36-2t-22-8q-6-6-9-16t-1-26q-2-16 1-26t9-16q10-6 22-8t36-2h560q10 0 14-5t6-11l-2-648q2-8-4-13t-12-5v0zM306 596l2-486q-2-34 13-60t35-44q24-18 47-27t43-9h474l2 614h-548q-18 0-36 2t-30 10h-2zM886 652h-476q-10 0-14 5t-6 13q2 6 6 11t14 5h476q8 0 12-5t6-11q-2-8-6-13t-12-5v0zM294 64h-8q-16 6-37 18t-37 30q-20 18-31 39t-13 43l2 556q-2 26 8 45t24 33q16 14 37 22t51 8h424q10 0 14-5t6-13q-2-6-6-11t-14-5h-424q-12 0-25-2t-29-10q-12-8-23-22t-9-40l-2-556q2-14 10-29t24-29q12-14 29-24t31-14q8-2 11-8t3-14l-8-8t-10-4h2zM184 162h-6q-18 4-39 14t-35 26q-18 14-27 34t-11 44l2 556q-2 28 11 51t31 39q22 16 45 25t49 9h476q10 0 14-5t6-13q-2-6-6-11t-14-5h-476q-20 0-37-7t-33-19q-12-12-23-28t-9-36l-2-556q2-16 9-30t19-26q10-10 26-18t30-10q10-2 13-8t3-12q-4-6-7-10t-11-4h2z" />
<glyph unicode="&#xe6e6;" glyph-name="arquivo-1" d="M1006 506q-6 0-9 3t-7 9l-124 308q-4 6 0 13t8 9q8 2 14-1t10-9l122-308q6-6 2-13t-8-9-5-2h-3zM18 500h-10q-4 4-8 10t2 14l138 314q4 8 10 10t14 0q4-4 8-10t0-12l-140-316q-4-6-7-8t-9-2h2zM786 840h-550q-4 0-10 5t-4 13q-2 6 4 11t10 5h550q4 0 10-5t4-11q2-8-4-13t-10-5v0zM748 908h-440q-10 0-14 5t-6 13q2 6 6 11t14 5h440q10 0 14-5t6-11q-2-8-6-13t-14-5v0zM836 516q-8 0-12 5t-6 13l2 238h-618l2-238q-2-8-6-13t-12-5q-6 0-12 5t-4 13l-2 256q2 6 6 11t14 5h646q10 0 14-5t6-11l-2-256q2-8-4-13t-12-5v0zM1004-46h-986q-10 0-14 5t-6 11l2 546q-2 8 4 13t12 5h990q6 0 12-5t4-13l2-546q-2-6-6-11t-14-5v0zM34-12h954l2 512h-958l2-512zM688 260h-338q-18 0-32 7t-28 19q-8 12-16 27t-6 33q-2 16 6 32t16 28q14 12 28 18t32 6h338q20 0 33-6t27-18q8-12 16-28t6-32q2-18-6-33t-16-27q-14-12-27-19t-33-7v0zM350 396q-12 0-19-4t-17-10q-4-8-9-17t-3-19q-2-10 3-20t9-16q10-8 17-12t19-4h338q12 0 20 4t16 12q4 6 9 16t3 20q2 10-3 19t-9 17q-8 6-16 10t-20 4h-338z" />
<glyph unicode="&#xe6ea;" glyph-name="pessoa-3" d="M108-58q-8 0-12 5t-6 11q2 46 19 85t49 69q30 28 74 44t92 16h62l-2 102q2 8 6 13t14 5q4 0 10-5t4-13l2-118q-2-8-6-13t-12-5h-76q-44 0-80-14t-64-38q-26-24-42-56t-14-72q-2-6-6-11t-14-5h2zM916-58q-10 0-14 5t-6 11q2 40-13 73t-37 57q-28 24-61 37t-77 13h-100q-8 0-12 5t-6 13l2 118q-2 8 4 13t10 5q10 0 14-5t6-13l-2-102h86q48 0 89-16t69-44q32-28 47-67t17-87q-2-6-6-11t-12-5h2zM498 220q-44 0-82 23t-70 61q-28 38-49 83t-23 89q-42 4-50 27t-10 31l2 86q-2 18 11 32t21 20l2 76q-2 40 8 71t28 51q20 22 46 33t64 11q20 10 42 18t42 12q22 6 42 8t42 2q24 0 50-5t46-15q24-8 41-22t33-32q10-14 18-30t10-34q6-16 4-34l-4-36-2-74q12-6 23-20t13-32l-2-86q2-10-3-19t-11-17q-10-8-22-14t-30-8q-2-46-22-92t-48-82q-34-38-74-60t-88-22h2zM564 920q-20 0-38-2t-40-8q-18-4-39-11t-41-17q-4 0-5-1t-3-1q-28 0-50-8t-36-24q-16-18-22-42t-8-58l2-86q-2-4-3-8t-7-6q-6-4-16-13t-8-15l-2-86q2-4 6-14t36-10q6 0 12-5t4-13q2-38 17-80t45-76q24-36 59-59t69-23q44 0 78 22t64 56q24 34 41 77t15 83q2 8 6 13t12 5q20 0 35 7t13 17l2 86q-2 6-10 15t-18 13q-2 2-5 6t-1 8l-2 86q2 2 1 3t1 1q2 14 4 29t-4 27q0 14-7 27t-13 25q-14 14-28 25t-34 19q-18 8-40 12t-42 4v0z" />
<glyph unicode="&#xe6ec;" glyph-name="cerebro-1" d="M638-54v0q-14 0-25 4t-21 14q-16 12-18 28t-2 30v170q0 10-4 18t-12 14q-6 8-16 11t-20 3-19-3-17-11q-6-6-10-14t-4-18v-170q0-16-8-31t-22-27q-6-6-14-10t-16-6-17-2h-19q-82 14-150 58t-118 110-77 151-27 183 27 183 77 151q50 68 119 111t153 57h16t16-2 16-6 14-10q14-12 22-27t8-31v-170q0-10 4-18t10-14q8-8 17-11t19-3 20 3 16 11q8 6 12 14t4 18v170q0 12 2 29t18 29q10 8 23 14t33 4q82-14 151-58t119-110 77-151 27-183-27-183-77-151q-50-68-118-111t-152-57h-10zM520 274q18 0 33-7t27-17q12-12 19-27t7-31v-170q0-14 1-21t7-11q6-6 12-8t12-2v0h6q76 12 139 53t109 103 71 142 25 170-25 170-71 142-110 102-140 54q-8 0-13-1t-15-9q-6-4-7-12t-1-20v-170q0-16-7-31t-19-25q-12-12-27-18t-33-6q-16 0-32 6t-28 18q-12 10-18 25t-6 31v170q0 8-5 17t-13 15q-6 6-16 9t-20 1q-76-12-140-53t-110-103-71-142-25-170 25-170 71-142 109-102 139-54q10-2 20 1t18 9 13 15 5 17v170q0 16 6 31t18 27q12 10 28 17t32 7v0zM276 626v0 0q-8 0-13 5t-3 13q0 22-1 50t-7 58-17 57-31 45q-4 6-5 13t5 11q4 6 11 6t13-4q22-20 35-49t21-61q6-32 8-65t2-63q-2-6-6-11t-12-5v0zM210 442q-22 0-40 2t-30 8q-14 8-14 30t6 68q2 20 5 47t-1 35h-10t-20-2q-12-2-26-4t-30 0q-8 0-12 5t-4 13q0 6 5 11t13 5q14-2 26 0t22 4q16 2 30 2t28-10q8-4 11-13t3-23-2-32-4-42q-2-16-4-36t-2-30q10-4 28-4h40t45 2 41 6q6 0 12-4t6-10q2-8-2-14t-12-6q-10-2-42-5t-66-3v0zM308 708q-8 0-18 1t-18 1-12 6-4 12q0 8 6 12t12 4q26-2 50-1l24 1q6 0 12-4t6-12q0-6-4-12t-12-6l-12-1t-30-1v0zM206 270q-12 0-24 1t-24 1q-12 2-24 3t-24 1q-20 2-39 3t-35 1q-6 2-11 7t-5 11q0 8 5 12t13 6q8-2 16-2h18q10-2 20-2t20-2q22-2 44-3t44-1q20-2 38 0t28 8q18 8 45 30t53 46q28 26 47 48t19 32q0 6 5 11t13 5q6 0 11-5t5-11q0-20-23-48t-53-56q-30-30-61-53t-47-31q-12-6-32-9t-42-3v0zM162 56q-2 0-6 2t-6 4q-4 6-4 13t6 11q18 18 41 36t45 32 42 24 36 10q8 0 13-5t5-13q0-6-5-11t-13-5-23-7-33-19-40-29-46-39q-2-2-5-3t-7-1v0zM146 290q-8 0-13 5t-5 13v68q0 6 5 11t13 5q6 0 11-5t5-11v-68q0-8-5-13t-11-5v0zM486 324q-14 0-30 6t-30 14q-16 8-28 18t-20 20q-4 4-3 11t5 13q6 4 13 4t11-6q6-8 16-16t22-14 23-11 21-5q8 0 13-5t5-11q0-8-5-13t-13-5v0zM806 12q-4 0-7 1t-5 3q-22 20-35 49t-21 61q-6 32-8 65t-2 63q0 6 5 11t13 5 12-5 4-13q0-22 1-50t7-58 17-57 31-45q4-6 4-13t-4-11q-2-4-6-5t-6-1v0zM896 230q-10 0-18 2t-14 8q-8 4-11 13t-3 23 2 32 4 42q2 16 4 36t2 30q-10 4-28 4h-40t-45-2-41-6q-8 0-13 4t-7 10q0 8 4 14t12 6q8 2 31 4t51 4 55 0 41-10 14-30-6-68q-2-20-5-47t1-35h9t21 2q12 2 25 4t31 0q6 0 11-5t5-13q0-6-5-11t-13-5q-14 0-26-1t-22-3q-8 0-14-1t-12-1v0zM748 152v0h-2q-24 2-48 1l-24-1q-8 0-13 4t-5 12q-2 6 3 12t13 6l26 1t52-1q8 0 12-6t4-12q-2-8-6-12t-12-4v0zM574 410v0 0q-6 0-11 5t-5 11q0 20 23 48t53 56q30 30 60 53t46 31q14 6 33 9t41 3q24 0 49-2t49-4q20-2 39-3t33-1q8-2 13-7t5-11q0-8-5-12t-13-6q-8 2-17 2h-17q-10 2-20 2t-20 2q-22 2-45 3t-43 3q-22 0-39-2t-27-8q-18-8-46-30t-54-46q-26-26-45-48t-19-32q0-6-5-11t-13-5v0zM706 708q-8 0-13 5t-5 13q0 6 5 11t13 5 23 7 33 19 40 29 46 39q4 4 11 4t13-6q4-6 4-13t-6-11q-20-18-42-36t-44-32q-22-16-42-25t-36-9v0zM862 530q-8 0-13 5t-5 11v34q0 8 5 13t13 5q6 0 11-5t5-13v-34q0-6-5-11t-11-5v0zM630 486q-4 0-7 2t-5 4q-6 8-16 16t-22 14-24 11-22 5q-6 0-11 5t-5 11q0 8 5 13t11 5q16 0 32-6t30-14 27-18 19-20q6-4 5-11t-5-13q-4-2-7-3t-5-1v0z" />
<glyph unicode="&#xe6ed;" glyph-name="cerebro-2" horiz-adv-x="1058" d="M802 264q-36 0-73 7t-73 19q-38 14-73 32t-65 40q-36 28-76 45t-80 25-79 11-73 5q-42 2-80 6t-68 18q-28 14-45 41t-17 77q0 78 39 144t109 114q70 46 167 73t215 27q130 0 229-25t167-77q66-50 99-125t33-175q0-66-17-119t-49-89q-34-36-81-55t-109-19v0zM530 914q-110 0-201-24t-157-68q-66-42-102-102t-36-130q0-36 11-56t33-30q22-12 55-16t79-6q36-2 77-5t83-13q42-8 84-26t84-48q28-22 60-39t66-27q34-12 69-19t67-7 70 9 72 35 57 75 23 129q0 94-30 162t-92 114-155 69-217 23v0zM904-52q-6 156-48 244l-42 88 28 20q2-4 46-96t52-254l-36-2zM820-52q-6 156-49 244l-43 88 28 20q4-4 47-96t51-254l-34-2zM60 486q-2 0-4 1t-4 1q-6 4-8 11t0 13q12 22 32 43t46 37q24 18 53 30t59 16q20 4 40 3t36-5q18-4 33-13t27-21q6-6 6-13t-6-11q-4-6-11-6t-13 6q-12 12-26 18t-28 10q-14 2-28 2t-24-2q-26-4-51-15t-47-25q-22-16-40-33t-28-37q-2-4-6-7t-8-3v0zM246 714q-4 0-9 1t-9 1q-16 2-30 9t-26 17-23 23-19 29q-4 8-1 14t9 10q6 2 13 0t9-8q6-12 14-23t18-17q10-8 20-13t22-7q10-2 19-1t19 3q8 4 16 9t16 11q6 6 12 13t12 13q14 18 30 35t36 29q20 10 45 12t55-14q6-2 8-9t0-13q-4-6-10-9t-14 1q-18 10-35 10t-31-8-28-22-30-32q-6-8-13-16t-13-14q-8-8-17-14t-21-10q-10-4-21-7t-23-3v0zM828 572q-32 0-52 11t-34 27-22 35-14 37q-6 16-11 27t-11 19q-4 8-11 11t-15 3-13 5-5 13q0 6 5 11t13 5q18 0 31-7t21-19q10-12 16-27t12-29q6-18 13-34t17-28q8-12 23-19t37-7q12 0 33 16t43 40 37 54 15 60q0 6 5 11t13 5q6 0 11-5t5-11q0-36-17-72t-43-64q-26-30-54-49t-48-19v0zM928 294q-8 0-13 5t-5 11q0 30-9 55t-25 41q-18 18-41 28t-49 10q-18 0-49 2t-65 10-66 28-50 54q-2 8 0 14t8 10q6 2 13 0t11-8q14-28 41-44t57-22q30-8 57-9t43-1q34 0 63-12t51-36q20-22 32-52t12-68q0-6-5-11t-11-5v0zM402 444q-4 0-7 1t-5 5q-6 4-6 11t6 13l84 84q6 6 13 6t11-6q6-4 6-11t-6-13l-84-84q-4-4-7-5t-5-1v0zM614 828q-4 0-9 3t-7 9 1 12 9 10l160 56q6 2 13-1t9-9q2-8-1-14t-9-8l-160-56q-2-2-3-2h-3z" />
<glyph unicode="&#xe6ee;" glyph-name="cerebro-3" d="M718 560h-14q-6 2-12 7t-4 11q-2 8 5 13t11 5q22-2 48 0t54 12q26 8 52 25t42 45q4 6 10 8t14-2q4-4 7-10t-3-12q-12-26-34-44t-48-32q-28-12-60-19t-70-7h2zM536 560q-8 0-12 4t-6 10q0 8-7 59t11 81q6 12 29 14t63-2q20 0 44-1t34 3v20t-4 32q0 14-2 30t0 32q-2 6 5 11t11 5q10 0 13-6t5-12q-2-14 0-28t2-30q4-12 4-23v-21q-2-10-3-18t-9-14q-2-8-12-11t-20-5q-16 0-32 1t-38 1q-14 2-35 3t-27-1q-4-10-4-24t-2-30q2-16 3-32t5-26q0-8-3-14t-11-6l-2-1t0-1v0zM784 478q-4 0-10 4t-4 10q-2 2-5 34t-1 60q2 6 7 11t13 3q6 0 11-5t3-13q0-24 2-55t4-31q-2-6-5-12t-13-6q2 0 1 0h-3zM528 436q-18 0-47 22t-55 52q-32 30-54 60t-32 44q-6 20-15 45t-11 55q-6 30-8 66t-4 76q2 8 6 13t14 5q4 0 10-5t4-13q2-38 3-72t9-62q2-28 9-51t15-41q10-18 32-46t48-52q22-26 45-44t31-18 12-5 6-13q-2-6-6-11t-12-5v0zM236 560q-10 0-14 5t-6 11q2 14-6 27t-18 25q-12 14-24 26t-28 26q-10 10-23 22t-21 24q-8 4-6 11t4 13q8 4 14 4t12-6q8-10 21-21t21-23q18-14 32-29t28-29q10-16 20-33t8-33q4-8-2-13t-12-7q-2 0-1 0t-1 0h2zM400 348q-10 0-14 5t-6 13q2 26 7 50t17 44q6 22 17 37t19 23q6 4 12 3t14-5q2-6 3-13t-7-11q-10-10-29-46t-17-82q-2-8-6-13t-12-5h2zM760 0h-104q-4 0-10 5t-4 13l-2 200q2 40-20 64t-60 38q-44 12-103 17t-143 5h-86q-34 0-63 8t-57 24q-24 16-46 39t-34 53q-16 28-21 59t-3 61q6 30 16 59t32 55q34 46 83 83t103 61q56 26 119 39t133 13q90 0 172-24t148-66q70-44 119-106t79-140q6-20 9-39t-1-37q0-18-8-36t-16-34q-14-16-26-28t-32-20q-14-8-34-12t-38-4q-16 0-30-4t-28-16q-10-14-19-35t-7-55l-2-222q2-8-4-13t-12-5v0zM674 34h70l-2 206q2 48 14 77t34 43q16 16 37 20t33 4q18 0 32 3t30 9q10 6 22 16t18 22q10 12 14 26l8 28q0 14-1 29t-9 31q-24 72-72 130t-110 100q-64 40-140 62t-164 22q-62 0-123-12t-111-36q-54-24-97-58t-79-78q-16-22-27-46t-11-50q-4-26 1-52t15-50q14-24 31-43t41-33q20-14 46-21t52-7h90q72 0 138-4t114-20q50-16 78-48t30-86l-2-184zM486 802q-6 0-12 5t-4 13l-2 34q2 6 6 11t14 5q4 0 10-5t4-11l2-34q-2-8-6-13t-12-5v0zM76 412q-4 0-6 1l-6 3q-4 4-5 11t5 13q10 12 25 25t29 23q18 10 35 17t39 7q4 0 10-5t4-13q2-6-4-11t-10-5q-16 0-30-6t-28-14l-24-20t-20-22q-6-2-8-3t-8-1h2zM774 316h-6t-6 2q-10 8-31 25t-37 35q-22 20-35 40t-17 36q2 8 6 13t12 5q6 2 12-3t4-13q4-14 35-48t73-62q4-4 6-11t-4-13q0-2-5-4t-7-2v0z" />
<glyph unicode="&#xe6fa;" glyph-name="predio-1" d="M888-64h-750q-8 0-12 5t-6 13l2 852q-2 8 4 13t10 5h754q4 0 10-5t4-13l2-852q-2-8-6-13t-12-5v0zM156-30h714l2 820h-718l2-820zM786 790h-510q-10 0-14 5t-6 11l2 136q-2 8 4 13t12 5h514q4 0 10-5t4-13l2-136q-2-6-6-11t-12-5v0zM292 824h476l2 102h-480l2-102zM478 516h-202q-10 0-14 5t-6 13l2 170q-2 8 4 13t12 5h206q4 0 10-5t4-13l2-170q-2-8-6-13t-12-5v0zM292 550h168l2 136h-172l2-136zM786 516h-204q-8 0-12 5t-6 13l2 170q-2 8 4 13t10 5h208q4 0 10-5t4-13l2-170q-2-8-6-13t-12-5v0zM600 550h168l2 136h-172l2-136zM478 278h-202q-10 0-14 5t-6 11l2 172q-2 6 4 11t12 5h206q4 0 10-5t4-11l2-172q-2-6-6-11t-12-5v0zM292 312h168l2 136h-172l2-136zM786 278h-204q-8 0-12 5t-6 11l2 172q-2 6 4 11t10 5h208q4 0 10-5t4-11l2-172q-2-6-6-11t-12-5v0zM600 312h168l2 136h-172l2-136zM478 38h-202q-10 0-14 5t-6 13l2 170q-2 8 4 13t12 5h206q4 0 10-5t4-13l2-170q-2-8-6-13t-12-5v0zM292 72h168l2 138h-172l2-138zM786 38h-204q-8 0-12 5t-6 13l2 170q-2 8 4 13t10 5h208q4 0 10-5t4-13l2-170q-2-8-6-13t-12-5v0zM600 72h168l2 138h-172l2-138z" />
<glyph unicode="&#xe6fb;" glyph-name="lista-1" d="M144 650q-16 0-29 6t-25 18q-8 10-15 24t-5 28q-2 16 5 30t15 24q12 10 25 16t29 6q14 0 29-6t23-16q12-10 17-24t7-30q-2-14-7-28t-17-24q-8-12-23-18t-29-6v0zM142 768q-14 0-27-12t-11-30q-2-16 11-28t27-12q20 0 31 12t13 28q-2 18-13 30t-31 12v0zM938 708h-650q-6 0-12 5t-4 11q-2 8 4 13t12 5h650q4 0 10-5t4-13q2-6-4-11t-10-5v0zM142 438q-12 0-27 6t-23 16q-12 10-17 24t-7 30q2 16 7 29t17 23q8 12 23 18t27 6q18 0 31-6t25-18q8-10 15-23t5-29q2-16-5-30t-15-24q-12-10-25-16t-31-6v0zM144 554q-18 0-29-12t-13-28q2-18 13-30t29-12q16 0 29 12t11 30q2 16-11 28t-29 12v0zM936 504h-646q-10 0-14 5t-6 11q2 8 6 13t14 5h646q8 0 12-5t6-13q-2-6-6-11t-12-5v0zM144 224q-16 0-29 6t-25 16q-8 10-15 24t-5 30q-2 16 5 30t15 24q12 10 25 16t29 6q14 0 29-6t23-16q12-10 17-24t7-30q-2-16-7-30t-17-24q-8-10-23-16t-29-6v0zM142 342q-14 0-27-12t-11-30q-2-18 11-30t27-12q20 0 31 12t13 30q-2 18-13 30t-31 12v0zM938 298h-650q-6 0-12 5t-4 13q-2 6 4 11t12 5h650q4 0 10-5t4-11q2-8-4-13t-10-5v0zM936 94h-646q-10 0-14 5t-6 11q2 8 6 13t14 5h646q8 0 12-5t6-13q-2-6-6-11t-12-5v0z" />
<glyph unicode="&#xe6fc;" glyph-name="onibus-1" d="M894 68h-776q-6 0-10 3t-8 9q2 2-15 71t-15 221l-2 404q2 60 52 96t124 54q68 18 146 24t128 6q2 0 1 0t1 0h2q2 0 1 0t1 0q60 0 136-7t140-25q68-20 112-55t46-93l-2-404q2-152-22-222t-24-74q-4-4-7-6t-9-2v0zM132 102h750q6 10 12 31t14 55q4 34 10 80t4 104l2 404q-2 34-29 61t-79 45q-50 20-126 30t-168 10q-78 0-152-8t-134-26q-58-16-96-44t-36-68l-2-404q2-58 4-103t8-79q4-34 9-56t7-32h2zM516 252q-38 0-75 3t-81 11q-38 8-83 21t-93 29q-6 2-8 7t-4 9q2 118 1 259t1 141q-2 26 25 48t71 38q48 16 111 26t141 10q72 0 135-9t107-25q46-16 70-39t26-49q-2 0-1-157t-1-241q2-6-2-10t-8-6q-50-18-93-30t-87-20q-38-10-77-13t-75-3v0zM206 346q46-16 86-27t80-19q36-8 73-11t69-3q36 0 71 3t75 11q36 8 78 19t86 27q2 90 1 238t1 148q-2 10-18 26t-56 28q-34 14-93 24t-137 10q-84 0-143-10t-99-24q-36-14-55-29t-17-25q-2 0-1-135t-1-251v0zM70 410h-52q-6 0-12 5t-4 11l-2 342q2 6 6 11t14 5h48q10 0 14-5t6-11q-2-8-6-13t-14-5h-32l-2-306h36q6 0 12-5t4-13q2-6-4-11t-12-5v0zM1006 410h-48q-10 0-14 5t-6 11q2 8 6 13t14 5h32l2 306h-36q-6 0-12 5t-4 13q-2 6 4 11t12 5h52q6 0 12-5t4-11l2-342q-2-6-6-11t-14-5v0zM244 130q-14 0-24 5t-20 13q-6 8-11 19t-3 23q-2 12 3 23t11 19q10 8 20 13t24 5q12 0 23-5t19-13q10-8 13-19t5-23q-2-12-5-23t-13-19q-8-8-19-13t-23-5v0zM242 216q-8 0-16-8t-6-18q-2-10 6-18t16-8q14 0 20 8t8 18q-2 10-8 18t-20 8v0zM800 130q-14 0-24 5t-20 13q-6 8-12 19t-4 23q-2 12 4 23t12 19q10 8 20 13t24 5q10 0 22-5t18-13q10-8 14-19t6-23q-2-12-6-23t-14-19q-6-8-18-13t-22-5v0zM798 216q-10 0-18-8t-6-18q-2-10 6-18t18-8q12 0 19 8t9 18q-2 10-9 18t-19 8v0zM522 262q-6 0-8 1l-6 3q-2 6-3 13t5 11l126 128q8 6 14 6t12-6q4-4 5-11t-7-13l-126-128-6-3t-8-1h2zM522 346q-6 0-10 2t-8 8q0 6 2 13t10 9l214 86q8 2 14-1t10-9q0-6-2-13t-10-9l-214-86h-6zM770-60q-20 0-34 7t-28 17q-10 12-18 26t-6 30l-2 48h36l-2-48q2-8 6-17t12-15q6-6 16-10t18-4q12 0 20 4t18 12l10 15t4 17l2 46h32l2-46q-2-16-8-31t-20-25q-10-12-26-19t-32-7v0zM256-60q-16 0-32 7t-26 17q-14 12-20 26t-8 30l2 48h32l2-48q-2-8 4-17l10-15q10-6 18-10t20-4q8 0 18 4t16 12q8 6 12 15t6 17l-2 46h36l-2-46q2-16-6-31t-18-25q-14-12-28-19t-34-7v0zM266 644q-6 0-8 1l-6 3q-2 6-3 13t5 11l40 44q8 4 14 4t12-4q4-6 5-13t-7-11l-40-44-6-3t-8-1h2zM276 560q-6 0-8 1l-6 3q-4 6-5 13t5 13l118 126q6 4 12 4t14-4q4-4 5-12t-7-12l-116-126q-6-4-8-5t-6-1h2z" />
<glyph unicode="&#xe6fd;" glyph-name="onibus-2" d="M968 68h-896q-6 0-10 3t-6 9l-56 192v516q0 34 15 64t39 54q24 22 57 36t67 14h684q34 0 63-13t51-35q22-24 35-54t13-66v-510l-40-196q0-6-5-10t-11-4v0zM86 102h868l36 180v506q0 28-10 53t-28 41q-16 18-40 29t-50 11h-684q-28 0-54-11t-46-29-32-42-12-52v-508l52-178zM802 750h-546q-8 0-13 5t-5 13v68q0 6 5 11t13 5h546q8 0 13-5t5-11v-68q0-8-5-13t-13-5v0zM274 784h512v34h-512v-34zM938 272h-818q-8 0-13 5t-5 13v376q0 6 5 11t13 5h818q8 0 13-5t5-11v-376q0-8-5-13t-13-5v0zM136 306h786v342h-786v-342zM494 290q-6 0-11 5t-5 11v342q0 8 5 13t11 5q8 0 13-5t5-13v-342q0-6-5-11t-13-5v0zM222 132q-12 0-23 5t-19 13-13 19-5 23 5 23 13 19 19 13 23 5 23-5 19-13 13-19 5-23-5-23-13-19-19-13-23-5v0zM222 218q-12 0-19-8t-7-18q0-12 7-19t19-7q10 0 18 7t8 19q0 10-8 18t-18 8v0zM818 132q-12 0-23 5t-19 13-12 19-4 23 4 23 12 19 19 13 23 5q14 0 24-5t20-13q8-8 12-19t4-23-4-23-12-19q-10-8-20-13t-24-5v0zM818 218q-10 0-17-8t-7-18q0-12 7-19t17-7q12 0 19 7t7 19q0 10-7 18t-19 8v0zM648 136h-238q-8 0-13 5t-5 13q0 6 5 11t13 5h238q8 0 13-5t5-11q0-8-5-13t-13-5v0zM870-60q-16 0-32 7t-28 17q-12 12-18 26t-6 30v48h34v-48q0-8 4-17t10-15q8-6 17-10t19-4 19 4 17 12q8 6 12 15t4 17v46h34v-46q0-16-7-31t-19-25q-12-12-27-19t-33-7v0zM188-60q-18 0-33 7t-27 17q-12 12-19 26t-7 30v48h34v-48q0-8 4-17t12-15q6-6 16-10t20-4 19 4 17 12q6 6 10 15t4 17v46h36v-46q0-16-7-31t-19-25q-12-12-28-19t-32-7v0zM178 560q-2 0-5 1t-7 5-4 11 4 13l42 42q6 4 13 4t11-4q6-6 6-13t-6-11l-42-42q-2-4-5-5t-7-1v0zM178 474q-2 0-5 1t-7 3q-4 6-4 13t4 11l128 130q6 4 13 4t11-4q6-6 6-13t-6-11l-128-130q-2-2-5-3t-7-1v0zM568 560q-4 0-7 1t-5 3q-4 6-5 13t5 13l40 40q4 6 11 6t13-4q6-6 6-13t-6-11l-40-42q-2-4-5-5t-7-1v0z" />
<glyph unicode="&#xe6fe;" glyph-name="pessoa-4" d="M502 246q-46 0-88 24t-70 60q-34 38-52 84t-22 90l-18 9t-14 13q-8 8-11 17t-5 19l2 86q-2 18 11 31l21 21 2 76q-2 30 9 56t27 46q20 20 43 31t53 11q10 6 55 19t93 13q40 0 70-11t52-35q18-22 30-55t10-75l2-70q20 0 34-5t20-11q8-8 10-19t4-23l-2-86q2-10-2-19t-8-17q-6-8-13-13t-17-9q0-46-20-92t-48-82q-32-38-71-61t-87-23v0zM540 918q-54 0-96-15t-44-15l-6-2q-24 0-42-8t-32-22q-12-16-21-36t-7-44l-2-86q2-4-1-8t-5-6q-10-6-18-14t-10-14l2-86q-2-10 8-18t20-8q8 0 12-5t6-11q-2-42 15-84t41-76q30-36 65-58t79-22q38 0 74 22t60 58q28 34 42 76t16 84q-2 6 4 11t12 5q12 0 17 8t7 18l-2 86q2 14-5 20t-45 6q-8 0-12 5t-6 11l2 86q-2 36-9 63t-25 45q-14 16-39 25t-55 9v0zM68-56q-4 0-10 5t-4 11l-2 48q2 44 15 80t43 60q26 26 68 39t90 13h58l62 92q6 6 12 8t14-4q4-2 6-9t-4-13l-68-102q-4-2-7-4t-9-2h-62q-46 0-79-11t-57-31q-22-20-35-49t-11-67l-2-48q2-6-4-11t-12-5h-2zM956-56q-6 0-12 5t-4 11l-2 48q2 44-16 74t-44 48q-30 18-64 27t-72 9h-62q-8 0-10 2t-8 6l-64 106q-6 6-3 13t7 11q8 4 14 2t10-8l60-98h58q50 0 94-14t72-38q32-26 47-61t17-79l-2-48q2-6-4-11t-10-5h-2zM418-10q2 0 0 0h-2q-6 2-8 4l-6 6-82 174q-6 6-4 11t4 9q6 4 11 5t11-1l170-90q4-2 6-5t4-7q-2-4-2-8t-4-8l-84-84q-4-4-6-5t-8-1v0zM372 144l50-108 54 52-106 56h2zM590-10q-4 0-7 1t-7 5l-84 84q-4 4-4 8t-2 8q2 4 4 7t8 5l172 90q6 2 11 1t11-5q2-4 3-9t-3-11l-86-174-6-6t-8-4h-2zM532 88l54-52 52 108-104-56h-2z" />
<glyph unicode="&#xe6ff;" glyph-name="pessoas-1" horiz-adv-x="1332" d="M1314-56q-8 0-12 5t-6 11l2 48q-2 40-28 69t-68 45q-38 18-84 26t-82 8q-6 0-9 2t-7 6l-94 122q-8 6-6 13t6 11q8 6 14 5t12-7l90-118q46 0 96-10t94-32q40-22 70-57t28-83l2-48q-2-6-6-11t-14-5h2zM470 246q-50 0-91 24t-75 60q-30 38-51 84t-23 90q-12 2-22 8l-20 12q-6 8-13 17t-5 21l-2 86q2 10 8 19t18 15q8 8 21 13t21 7l2 74q-2 30 10 56t26 46q20 20 44 31t54 11q10 6 54 19t92 13q42 0 71-11t51-35q20-22 31-55t9-75l2-70q24-6 29-25t3-33l2-86q-2-28-10-41t-22-15q0-48-18-94t-44-84q-30-36-68-59t-86-23h2zM520 918q-52 0-95-15t-45-15l-4-2q-24 0-42-8t-34-22q-12-16-20-36t-6-44l-2-86q2-6-3-10t-9-6q-20-6-37-14t-21-14l2-84q-2-8 14-17t28-9q8 0 12-5t6-11q-2-40 16-83t44-77q30-36 66-58t80-22q36 0 71 22t57 56q26 34 39 77t15 85q-2 6 4 11t12 5 9 3 5 23l-2 86q2 18-1 22t-13 4-14 5-6 11l2 86q-2 36-9 63t-25 45q-14 16-39 25t-55 9v0zM902 292q-18 0-38 2t-36 6q-20 2-35 7t-33 9q-6 2-10 8t0 12q0 8 7 11t11 1q18-4 32-8t34-6q14-4 33-5t35-1q82 0 138 17t96 41q36 24 58 50t30 42q-4 12-18 33t-24 45q-14 26-24 49t-16 39q-4 28-21 69t-41 81q-30 38-72 65t-106 27q-10 0-23-1t-23-3q-14-4-24-8t-22-10q-4-2-12 0t-10 8q-4 6-1 13t7 11q14 6 26 11t28 7q12 4 27 6t27 2q52 0 94-18t80-54q32-34 59-84t39-114q6-14 16-36t24-46q10-26 24-48t20-34q4-4 3-8t-1-8q-10-16-30-46t-64-60q-40-30-105-52t-157-22h-2zM16-56q-6 0-12 5t-4 11l-2 48q2 50 22 86t56 60q32 22 77 34t87 12h56l50 92q6 6 12 8t14-2q4-4 7-11t-3-13l-54-100q-4-4-7-6t-11-2h-62q-38 0-74-9t-68-27q-28-18-48-48t-18-74l-2-48q2-6-4-11t-10-5h-2zM936-56q-4 0-10 5t-4 11l-2 48q2 44-18 74t-48 48q-32 18-67 27t-73 9h-62q-6 0-9 2l-9 6-60 106q-6 8-3 14t7 10q8 4 14 2t12-8l56-98h56q42 0 86-12t76-34q36-24 56-60t22-86l-2-48q2-6-4-11t-12-5h-2zM390-10q2 0 0 0t0 0q-8 2-10 4l-6 6-78 182q-4 6-2 11t4 9q6 4 10 5t12-3l164-96q6-2 7-6t3-6q-2-4-2-8t-4-8l-84-84q-4-2-6-4t-8-2v0zM348 148l48-110 54 52-104 58h2zM562-10q-4 0-6 2t-8 4l-82 84q-6 4-6 8t-2 8q4 4 5 7t7 5l172 90q6 2 11 1t11-5q2-4 4-9t-4-11l-86-174-6-6t-8-4h-2zM504 88l54-52 52 108-104-56h-2z" />
<glyph unicode="&#xe700;" glyph-name="pessoas-2" horiz-adv-x="1434" d="M462 246q-48 0-89 24t-75 60q-30 38-50 84t-22 90q-12 2-21 8t-19 14q-6 6-12 16t-4 20l-2 86q2 18 14 31t22 21l-2 76q2 28 13 54t35 46q18 20 46 32t56 12q14 6 59 19t101 13q40 0 72-11t52-35q24-22 34-55t12-75l-2-70q28-6 31-25t5-33l-2-86q2-10-1-20t-5-16q-6-8-11-13t-15-7q-2-48-20-94t-46-84q-32-36-70-59t-86-23h2zM512 918q-56 0-101-15t-49-15q2 0-1-1l-3-1q-26 0-46-9t-40-23q-14-16-25-36t-9-42l-2-86q2-4-1-8t-5-6q-10-6-18-14t-10-14l2-86q-2-8 12-17t24-9 14-5 6-11q-2-40 15-83t43-77q30-36 66-58t78-22q38 0 73 22t59 56q26 36 40 78t16 84q-2 6 4 11t10 5q6 0 11 3t7 23l-2 86q2 18-1 22t-13 4-14 5-6 11l2 86q-2 36-9 63t-27 45q-14 16-41 25t-59 9v0zM16-56q-6 0-12 5t-4 11l-2 48q2 44 18 79t48 61q28 24 72 38t96 14h56l54 92q6 6 12 8t14-2q4-4 7-11t-3-13l-60-100q-4-4-7-6t-9-2h-62q-38 0-73-9t-65-27q-26-18-45-48t-17-74l-2-48q2-6-4-11t-10-5h-2zM902-56q-4 0-10 5t-4 11l-2 48q2 50-18 82t-46 48q-28 16-59 22t-57 6h-62q-8 0-10 2t-6 4l-74 108q-6 6-4 13t6 11q8 4 14 3t12-7l68-100h58q48 0 89-13t65-39q30-24 44-60t16-80l-2-48q2-6-4-11t-12-5h-2zM1176-56q-6 0-12 5t-4 11l-2 48q2 44-16 74t-44 48q-30 18-65 27t-71 9h-62q-8 0-10 2t-8 6l-66 108q-4 4-4 8v8l12 22q0 2 2 4t0 2q24 18 39 40t29 48q8 26 16 53t6 55q2 6 6 11t12 5q14 0 18 10t2 14l2 86q-2 14-8 20t-46 6q-4 0-10 5t-4 11l-2 86q2 20-1 38t-7 32q-6 14-11 26t-17 20q-4 6-15 11t-21 9q-14 2-27 3t-31 1q-4-2-11 3t-5 13q-2 6 4 12t10 6q22 0 39-1t33-5q14-4 27-11t21-17q14-10 21-24t15-32q4-18 8-39t2-45l2-70q20 0 34-5t20-11q8-8 10-19t4-23l-2-86q2-10-2-19t-6-17q-8-6-14-11t-18-9q2-28-7-57t-19-55q-14-26-31-49t-39-43l-2-10 56-92h58q50 0 94-14t72-38q32-26 47-61t17-79l-2-48q2-6-4-11t-10-5h-2zM1414-56q-4 0-10 5t-4 11l-2 48q2 50-18 82t-46 48q-28 16-59 22t-57 6h-62q-8 0-10 2t-8 6l-66 108q-4 4-4 8v8l12 22q0 2 2 4t0 2q22 16 36 37t26 47q8 24 14 53t4 59q2 6 6 11t14 5q2 0 7 3t3 21l2 86q-2 18-3 22t-15 4q-6 0-12 5t-4 11l-2 86q2 18-1 35t-5 31q-8 14-13 25t-17 19q-6 8-19 14t-25 10q-14 4-30 5t-36 1q-4-2-11 3t-5 13q-2 6 4 12t10 6q24 0 43-1t37-7q16-4 31-12t25-18q14-12 21-26l15-30q4-18 8-38t2-42l2-70q24-6 29-25t3-33l2-86q-2-28-10-40t-22-16q2-30-6-59t-18-55q-12-26-27-49t-37-41l-2-10 56-92h58q48 0 89-13t65-39q30-24 44-60t16-80l-2-48q2-6-4-11t-12-5h-2zM382-10h-2q-6 2-8 4l-6 6-84 174q-4 6-2 11t4 9q6 4 11 5t11-1l168-90q6-2 8-5t4-7q-2-4-2-8t-6-8l-82-84q-4-4-7-5t-7-1v0zM336 144l50-108 54 52-106 56h2zM554-10q-6 0-8 2t-6 4l-84 84q-4 4-4 8t-2 8q2 4 4 7t8 5l172 90q6 2 11 1t11-5q2-4 3-9t-3-11l-86-174q-4-4-7-6t-9-4q2 0 0 0t0 0v0zM496 88l54-52 52 108-104-56h-2z" />
<glyph unicode="&#xe701;" glyph-name="pessoa-5" d="M956-40q-8 0-13 5t-5 11v48q0 40-26 69t-66 45q-40 18-85 26t-83 8q-4 0-8 2t-6 6l-98 122q-4 6-3 13t7 11q6 6 13 5t11-7l92-118q44 0 94-10t94-32q42-22 70-57t28-83v-48q0-6-5-11t-11-5v0zM68-40q-6 0-11 5t-5 11v48q0 48 27 83t69 57 92 32 94 10l92 118q6 6 13 7t11-5q6-4 7-11t-3-13l-98-122q-2-4-6-6t-8-2q-36 0-81-8t-85-26q-38-16-64-45t-26-69v-48q0-6-5-11t-13-5v0zM504 306q-94 0-158 22t-106 52-64 60-30 46q-2 4-2 8t4 8q6 12 19 35t27 47q12 24 23 47t13 37q16 64 42 114t60 84 78 52 94 18q48 0 92-18t78-52 60-84 42-114q2-14 13-37t23-47q14-24 27-47t21-35q2-4 2-8t-2-8q-8-16-30-46t-64-60-106-52-156-22v0zM182 492q8-16 30-42t60-50q38-26 95-43t137-17 136 17 94 43q38 24 60 50t30 42q-6 12-18 33t-26 47q-12 24-23 48t-15 40q-6 26-21 68t-43 80q-28 40-71 67t-103 27q-62 0-105-27t-71-67q-28-38-43-80t-21-68q-4-16-15-40t-23-48q-14-26-26-47t-18-33v0zM418-36h-4q-4 0-7 3t-5 7l-86 192q-2 6-1 11t7 9q4 4 9 4t11-2l170-108q4-2 6-5t2-7-1-8-3-6l-86-86q-2-2-5-3t-7-1v0zM370 128l54-118 52 54-106 64zM588-36q-2 0-6 1t-6 3l-86 86q-2 2-3 6t-1 8 2 7 6 5l170 108q6 2 11 2t9-4q6-4 7-9t-1-11l-86-192q-2-4-5-7t-7-3h-4zM530 64l52-54 54 118-106-64z" />
<glyph unicode="&#xe707;" glyph-name="cauculadora" d="M722-64h-418q-36 0-65 13t-53 35q-22 24-36 54t-12 64l-2 692q2 34 14 64t38 54q20 22 51 35t63 13h422q32 0 63-13t51-35q26-24 38-54t14-64l-2-692q2-34-12-64t-36-54q-24-22-53-35t-65-13v0zM304 926q-28 0-51-10t-43-28q-16-18-28-43t-10-51l-2-692q2-26 12-51t30-43q16-18 41-28t49-10h422q24 0 49 10t41 28q20 18 30 43t12 51l-2 692q2 26-10 51t-28 43q-20 18-43 28t-51 10h-418zM652 448h-244q-38 0-67 13t-53 35q-20 24-35 54t-13 64l-2 44q2 34 15 64t37 52q20 24 51 37t65 13h248q34 0 65-13t51-37q26-22 38-52t14-64l-2-44q2-34-12-64t-36-54q-24-22-53-35t-67-13v0zM408 790q-30 0-53-11t-43-29q-16-18-27-42t-9-50l-2-44q2-26 11-51t29-43q16-18 41-28t51-10h248q26 0 51 10t41 28q20 18 30 43t12 51l-2 44q2 26-10 50t-28 42q-20 18-43 29t-53 11h-244zM648 346h140l-2-34h-136l-2 34zM734 210h42l-84-138h-44zM394 210h-46l-18-32-24 32h-40l40-70-40-68h40l24 32 18-32h46l-46 68zM326 260q-8 0-12 5t-6 13l2 102q-2 6 4 11t10 5q10 0 14-5t6-11l-2-102q2-8-4-13t-12-5v0zM376 312h-100q-10 0-14 5t-6 11q2 8 6 13t14 5h100q8 0 12-5t6-13q-2-6-6-11t-12-5v0z" />
<glyph unicode="&#xe70a;" glyph-name="calendario-1" d="M290 628q-8 0-12 5t-6 11l2 170q-2 8 4 13t10 5q10 0 14-5t6-13l-2-170q2-6-4-11t-12-5v0zM732 628q-6 0-12 5t-4 11l-2 170q2 8 6 13t14 5q4 0 10-5t4-13l2-170q-2-6-6-11t-12-5v0zM854 508h-686q-4 0-10 5t-4 11q-2 8 4 13t10 5h686q4 0 10-5t4-13q2-6-4-11t-10-5v0zM306 372h-136q-8 0-12 5t-6 11q2 8 6 13t12 5h136q8 0 12-5t6-13q-2-6-6-11t-12-5v0zM580 372h-138q-6 0-12 5t-4 11q-2 8 4 13t12 5h138q6 0 12-5t4-13q2-6-4-11t-12-5v0zM852 372h-136q-8 0-12 5t-6 11q2 8 6 13t12 5h136q8 0 12-5t6-13q-2-6-6-11t-12-5v0zM308 234h-140q-4 0-10 5t-4 13q-2 6 4 11t10 5h140q4 0 10-5t4-11q2-8-4-13t-10-5v0zM578 234h-134q-10 0-14 5t-6 13q2 6 6 11t14 5h134q10 0 14-5t6-11q-2-8-6-13t-14-5v0zM854 234h-140q-4 0-10 5t-4 13q-2 6 4 11t10 5h140q4 0 10-5t4-11q2-8-4-13t-10-5v0zM936 64h-850q-20 0-35 7t-27 19q-10 10-18 26t-6 34l-2 512q2 16 8 32t20 28q8 12 25 18t33 6h854q16 0 33-6t25-18q14-12 20-28t8-32l-2-512q2-18-6-34t-18-26q-12-12-27-19t-35-7v0zM86 712q-14 0-22-4t-16-10q-6-8-11-17t-3-19l-2-512q2-12 5-21t13-15q4-8 14-12t20-4h854q10 0 20 4t14 12q10 6 13 15t5 21l-2 512q2 10-3 19t-11 17q-8 6-16 10t-22 4h-850z" />
<glyph unicode="&#xe70b;" glyph-name="calendario-2" d="M938-56h-854q-16 0-33 7t-25 19q-14 12-20 27t-8 33l2 750q-2 18 6 34t18 28q12 10 27 17t35 7h850q20 0 35-7t27-17q10-12 18-28t6-34l2-750q-2-18-8-33t-20-27q-8-12-25-19t-33-7v0zM84 832q-10 0-20-4t-14-12q-10-6-13-15t-5-21l2-750q-2-10 3-20t11-16q8-8 16-12t22-4h850q14 0 22 4t16 12q6 6 11 16t3 20l2 750q-2 12-5 21t-13 15q-4 8-14 12t-20 4h-854zM256 780q-10 0-14 5t-6 13l2 136q-2 8 4 13t12 5q10 0 14-5t6-13l-2-136q2-8-4-13t-12-5v0zM766 780q-6 0-12 5t-4 13l-2 136q2 8 6 13t14 5q6 0 12-5t4-13l2-136q-2-8-6-13t-14-5v0zM854 662h-686q-4 0-10 5t-4 11q-2 8 4 13t10 5h686q4 0 10-5t4-13q2-6-4-11t-10-5v0zM306 524h-136q-8 0-12 5t-6 13q2 6 6 11t12 5h136q8 0 12-5t6-11q-2-8-6-13t-12-5v0zM580 524h-138q-6 0-12 5t-4 13q-2 6 4 11t12 5h138q6 0 12-5t4-11q2-8-4-13t-12-5v0zM852 524h-136q-8 0-12 5t-6 13q2 6 6 11t12 5h136q8 0 12-5t6-11q-2-8-6-13t-12-5v0zM308 388h-140q-4 0-10 5t-4 13q-2 6 4 11t10 5h140q4 0 10-5t4-11q2-8-4-13t-10-5v0zM578 388h-134q-10 0-14 5t-6 13q2 6 6 11t14 5h134q10 0 14-5t6-11q-2-8-6-13t-14-5v0zM854 388h-140q-4 0-10 5t-4 13q-2 6 4 11t10 5h140q4 0 10-5t4-11q2-8-4-13t-10-5v0zM306 252h-136q-8 0-12 5t-6 11q2 8 6 13t12 5h136q8 0 12-5t6-13q-2-6-6-11t-12-5v0zM580 252h-138q-6 0-12 5t-4 11q-2 8 4 13t12 5h138q6 0 12-5t4-13q2-6-4-11t-12-5v0zM852 252h-136q-8 0-12 5t-6 11q2 8 6 13t12 5h136q8 0 12-5t6-13q-2-6-6-11t-12-5v0zM308 116h-140q-4 0-10 5t-4 11q-2 8 4 13t10 5h140q4 0 10-5t4-13q2-6-4-11t-10-5v0zM578 116h-134q-10 0-14 5t-6 11q2 8 6 13t14 5h134q10 0 14-5t6-13q-2-6-6-11t-14-5v0zM854 116h-140q-4 0-10 5t-4 11q-2 8 4 13t10 5h140q4 0 10-5t4-13q2-6-4-11t-10-5v0z" />
<glyph unicode="&#xe70d;" glyph-name="calendario-3" d="M256 628q-8 0-13 5t-5 11v170q0 8 5 13t13 5 13-5 5-13v-170q0-6-5-11t-13-5v0zM768 628q-8 0-13 5t-5 11v170q0 8 5 13t13 5 13-5 5-13v-170q0-6-5-11t-13-5v0zM136 508h68v-68h-68v68zM308 508h68v-68h-68v68zM478 508h68v-68h-68v68zM648 508h68v-68h-68v68zM820 508h68v-68h-68v68zM136 372h68v-70h-68v70zM308 372h68v-70h-68v70zM478 372h68v-70h-68v70zM648 372h68v-70h-68v70zM820 372h68v-70h-68v70zM922 64h-820q-20 0-39 8t-33 22-22 33-8 39v478q0 22 8 40t22 32 33 22 39 8h820q20 0 39-8t33-22 22-32 8-40v-478q0-20-8-39t-22-33-33-22-39-8v0zM102 712q-14 0-26-5t-22-15q-10-8-15-21t-5-27v-478q0-14 5-26t15-22 22-15 26-5h820q14 0 26 5t22 15 15 22 5 26v478q0 14-5 27t-15 21q-10 10-22 15t-26 5h-820z" />
<glyph unicode="&#xe70f;" glyph-name="camera-1" d="M882 90h-726q-28 0-58 13t-50 33q-24 22-36 50t-14 58l2 340q-2 30 12 58t34 48q24 22 52 35t60 13h180l42 60q0 4 5 6t7 2h258q4 0 8-2t6-6l40-60h176q32 0 56-12t46-34q18-20 30-48t10-60l2-340q-2-32-12-60t-32-48q-18-22-44-34t-54-12v0zM156 704q-22 0-45-10t-39-28q-18-16-28-37t-12-45l2-340q-2-24 10-45t26-39q20-16 41-26t47-10h722q24 0 43 9t35 27q12 16 22 37t8 47l2 340q-2 24-10 46t-24 38q-12 16-33 26t-41 10h-190q-2 0-7 2t-5 6l-40 60h-238l-40-60q0-4-5-6t-7-2h-194zM520 204q-50 0-91 19t-73 49q-30 32-49 74t-17 90q-2 46 17 88t49 74q32 32 73 50t91 18q46 0 89-18t71-50q34-32 51-74t19-88q-2-48-19-90t-51-74q-28-30-71-49t-89-19v0zM518 632q-38 0-75-16t-61-42q-30-26-44-62t-16-76q2-42 16-77t44-63q24-26 61-42t75-16q42 0 77 16t63 42q26 28 42 63t14 77q2 40-14 76t-42 62q-28 26-63 42t-77 16v0zM188 722q-10 0-14 5t-6 11l2 34q-2 8 4 13t12 5q8 0 12-5t6-13l-2-34q2-6-4-11t-10-5v0zM886 602h-32q-10 0-14 5t-6 11q2 8 6 13t14 5h32q8 0 12-5t6-13q-2-6-6-11t-12-5v0z" />
<glyph unicode="&#xe710;" glyph-name="camera-2" d="M882 90h-726q-28 0-58 13t-50 33q-24 22-36 50t-14 58l2 340q-2 30 12 58t34 48q24 22 52 35t60 13h314l38 60q0 4 5 6t7 2h216q2 0 7-2t5-6l40-60h90q32 0 56-12t46-34q18-20 30-48t10-60l2-340q-2-32-12-60t-32-48q-18-22-44-34t-54-12v0zM156 704q-22 0-45-10t-39-28q-18-16-28-37t-12-45l2-340q-2-24 10-45t26-39q20-16 41-26t47-10h722q24 0 43 9t35 27q12 16 22 37t8 47l2 340q-2 24-10 46t-24 38q-12 16-33 26t-41 10h-104q-2 0-7 2t-5 6l-40 60h-192l-38-60q0-4-5-6t-9-2h-326zM648 204q-50 0-91 19t-73 49q-30 32-49 74t-17 90q-2 46 17 88t49 74q32 32 73 50t91 18q46 0 89-18t71-50q34-32 51-74t19-88q-2-48-19-90t-51-74q-28-30-71-49t-89-19v0zM646 632q-38 0-75-16t-61-42q-30-26-44-62t-16-76q2-42 16-77t44-63q24-26 61-42t75-16q42 0 77 16t63 42q26 28 42 63t14 77q2 40-14 76t-42 62q-28 26-63 42t-77 16v0zM648 290q-32 0-57 11t-47 31q-18 20-30 47t-10 57q-2 30 10 56t30 46q22 20 47 31t57 11q28 0 55-11t45-31q22-20 33-46t13-56q-2-30-13-57t-33-47q-18-20-45-31t-55-11v0zM646 546q-20 0-42-9t-34-23q-18-16-25-36t-9-42q2-24 9-44t25-36q12-14 34-23t42-9q26 0 45 9t35 23q14 16 24 36t8 44q2 22-8 42t-24 36q-16 14-35 23t-45 9v0zM308 738h-106q-4 0-10 5t-4 13q-2 6 4 11t10 5h106q4 0 10-5t4-11q2-8-4-13t-10-5v0zM186 210q-6 0-12 5t-4 11l-2 410q2 6 6 11t14 5q4 0 10-5t4-11l2-410q-2-6-6-11t-12-5v0z" />
<glyph unicode="&#xe725;" glyph-name="carro-1" d="M1006 314h-120l2 34h100l2 4q-2 34-6 59t-16 41q-8 16-26 24t-38 8h-152q-2 0-6 2t-4 6l-112 144q-4 8-15 13t-21 5h-278q-10 0-21-5t-15-13l-110-144q-2-4-6-6t-6-2h-126l2-136h100l2-34h-120q-6 0-12 5t-4 11l-2 172q2 6 6 11t14 5h128l106 138q4 8 12 14t16 10q10 4 18 7t20 3h274q12 0 20-3t18-7q8-4 16-10t12-14l106-138h138q48 0 71-20t37-48q8-26 11-54t1-44l2-22q-2-6-6-11t-14-5h2zM308 348h440l2-34h-444l2 34zM220 206q-20 0-39 9t-31 21q-16 14-23 33t-9 41q2 20 9 39t23 33q12 14 31 22t39 8q22 0 40-8t34-22q12-14 21-33t7-39q2-22-7-41t-21-33q-16-12-34-21t-40-9v0zM222 378q-16 0-28-6t-22-14q-8-10-14-22t-4-26q-2-14 4-27t14-21q10-10 22-15t28-5q12 0 25 5t21 15q12 8 16 21t6 27q-2 14-6 26t-16 22q-8 8-21 14t-25 6v0zM816 206q-18 0-38 9t-32 21q-16 14-23 33t-9 41q2 20 9 39t23 33q12 14 32 22t38 8q24 0 42-8t34-22q12-14 21-33t7-39q2-22-7-41t-21-33q-16-12-34-21t-42-9v0zM818 378q-16 0-27-6t-23-14q-6-10-13-22t-5-26q-2-14 5-27t13-21q12-10 23-15t27-5q12 0 26 5t22 15q10 8 15 21t7 27q-2 14-7 26t-15 22q-8 8-22 14t-26 6v0zM134 518h652l-2-34h-648l-2 34zM444 654h32l2-136h-36l2 136z" />
<glyph unicode="&#xe726;" glyph-name="carro-2" d="M894 230h-746q-28 0-53 8t-49 26q-18 16-32 39t-12 53l-2 120q2 14 6 26t14 20q6 10 17 17t19 11l68 22 80 176q8 14 17 26t23 20q12 8 27 12t29 4h442q14 0 30-5t26-13q14-8 23-19t17-25l78-174 64-26q8-6 18-13t14-17q8-8 10-20l4-24-2-118q2-28-9-51t-25-39q-20-18-43-27t-53-9v0zM302 776q-14 0-22-3t-20-9q-6-6-14-13t-10-17l-86-182q0-4-4-6l-4-2-74-26q-10-4-22-16t-10-26l-2-120q2-22 11-38t27-30q14-12 35-18t39-6h750q18 0 37 7t29 19q16 12 22 29t8 37l-2 118q2 14-6 25t-18 17l-70 30-3 2t-3 6l-84 180q-2 10-10 17t-14 13q-12 6-20 9t-22 3h-438zM522 474q-80 0-156 7t-136 21q-66 16-115 36t-81 44q-2 4-4 11t4 13q2 6 10 6t12-4q30-22 76-41t110-31q58-14 131-21t149-7 147 7 133 19q58 14 107 32t75 40q8 6 14 5t12-7q2-6 2-13t-6-11q-30-24-80-44t-112-34q-66-14-139-21t-153-7v0zM178 324q-14 0-24 5t-20 13q-6 8-12 19t-4 23q-2 14 4 24t12 18q10 10 20 14t24 4q10 0 22-4t18-14q10-8 14-18t6-24q-2-12-6-23t-14-19q-6-8-18-13t-22-5v0zM176 410q-8 0-17-7t-7-19q-2-10 7-17t17-7q12 0 19 7t9 17q-2 12-9 19t-19 7v0zM860 324q-14 0-24 5t-20 13q-6 8-11 19t-3 23q-2 14 3 24t11 18q10 10 20 14t24 4q12 0 23-4t19-14q10-8 13-18t5-24q-2-12-5-23t-13-19q-8-8-19-13t-23-5v0zM858 410q-8 0-16-7t-6-19q-2-10 6-17t16-7q14 0 20 7t8 17q-2 12-8 19t-20 7v0zM206 86q-22 0-40 8t-34 22q-12 14-21 33t-7 39l-2 76h36l-2-76q2-14 7-26t15-22q8-8 21-14t25-6q16 0 28 6t24 14q6 10 13 22t5 26l2 76h32l2-76q-2-20-9-39t-23-33q-12-14-32-22t-40-8v0zM854 86q-20 0-40 8t-32 22q-14 14-22 33t-10 39l2 76h34l2-76q-2-14 4-26t14-22q10-8 22-14t28-6q12 0 25 6t21 14q10 10 15 22t7 26l-2 76h36l-2-76q2-20-7-39t-21-33q-16-14-34-22t-40-8v0zM684 332h-342q-6 0-12 5t-4 11q-2 8 4 13t12 5h342q6 0 12-5t4-13q2-6-4-11t-12-5v0zM264 668q-2 0-6 1t-4 3q-8 6-6 13t4 11l50 42q2 4 10 4t12-6q6-4 4-12t-4-12l-48-40q0-2-4-3t-6-1h-2zM264 586q-2 0-6 1t-4 3q-8 6-6 13t4 11l132 124q4 4 12 4t10-6q8-4 6-11t-4-13l-132-122q0-2-4-3t-6-1h-2z" />
<glyph unicode="&#xe72c;" glyph-name="coracao-1" d="M512-22q-4 0-7 1t-7 3l-424 472q-4 2-4 4t-2 2l2 2q-18 24-29 46l-21 42q-6 20-12 42t-4 48q-2 58 21 109t57 89q40 36 89 58t107 22q34 0 69-9t63-25q32-18 57-42t45-56q16 30 43 55t55 41q32 16 65 26t71 10q54 0 105-22t87-60q38-38 59-88t23-108q-2-26-6-48t-14-42q-6-22-20-43t-26-47q-2-2-2-3t-4-3l-422-472q-6-2-8-3t-8-1q2 0 1 0t1 0v0zM98 476l414-456 410 456q16 26 27 46t21 40q6 18 11 37t3 41q2 50-18 95t-50 77q-36 32-78 51t-94 19q-34 0-68-9t-60-27q-30-20-52-45t-38-57q-2-10-15-10t-15 10q-16 32-38 58t-52 44q-26 18-60 28t-68 10q-52 0-94-19t-78-51q-30-34-50-78t-18-96q-2-22 3-41t11-37q10-18 20-38t26-46v-2zM534 146h-4q-4 2-9 5t-3 9l-76 400-60-234q-4-6-8-10t-10-4h-268q-10 0-14 5t-6 13q2 6 6 11t14 5h254l80 296q0 6 6 10t10 2q8 0 11-4t7-10l76-424 64 122q0 4 5 6t7 2h334q4 0 10-5t4-11q2-8-4-13t-10-5h-324l-76-156q-4-4-8-7t-10-3h2z" />
<glyph unicode="&#xe735;" glyph-name="cd-1" d="M512 926q98 0 185-38t153-102q64-66 102-153t38-185-38-185-102-153q-66-64-153-102t-185-38-185 38-153 102q-64 66-102 153t-38 185 38 185 102 153q66 64 153 102t185 38v0zM512 960q-106 0-199-40t-163-110-110-163-40-199 40-199 110-163 163-110 199-40 199 40 163 110 110 163 40 199-40 199-110 163-163 110-199 40v0 0zM128 430q-8 0-13 5t-5 13q0 82 32 155t86 129q56 54 129 86t155 32q8 0 13-5t5-13-5-13-13-5q-76 0-143-28t-117-78-78-117-28-143q0-8-5-13t-13-5v0zM512 46q-8 0-13 5t-5 13 5 13 13 5q76 0 143 28t117 78 78 117 28 143q0 8 5 13t13 5 13-5 5-13q0-82-32-155t-86-129q-56-54-129-86t-155-32v0zM512 388q-12 0-23 5t-19 13-13 19-5 23 5 23 13 19 19 13 23 5 23-5 19-13 13-19 5-23-5-23-13-19-19-13-23-5v0zM512 474q-10 0-18-8t-8-18 8-18 18-8 18 8 8 18-8 18-18 8v0zM512 302q-30 0-56 12t-46 32-32 46-12 56 12 56 32 46 46 32 56 12 56-12 46-32 32-46 12-56-12-56-32-46-46-32-56-12v0zM512 558q-22 0-43-8t-35-24q-16-14-24-35t-8-43 8-43 24-35q14-16 35-24t43-8 43 8 35 24q16 14 24 35t8 43-8 43-24 35q-14 16-35 24t-43 8v0z" />
<glyph unicode="&#xe737;" glyph-name="cd-2" d="M512-38q-100 0-189 38t-155 104-104 155-38 189 38 189 104 155 155 104 189 38 189-38 155-104 104-155 38-189-38-189-104-155-155-104-189-38v0zM512 900q-94 0-176-35t-144-97-97-144-35-176 35-176 97-144 144-97 176-35 176 35 144 97 97 144 35 176-35 176-97 144-144 97-176 35v0zM450 52h-4q-56 10-107 34t-93 62q-42 36-72 84t-46 102q-2 8 1 14t9 8q8 2 14-2t8-10q14-50 42-93t68-77q38-34 84-57t98-31q6-2 11-7t3-13q-2-6-6-10t-10-4v0zM896 430q-8 0-13 5t-5 13q0 76-28 143t-78 117-117 78-143 28q-8 0-13 5t-5 13 5 13 13 5q82 0 155-32t129-86q54-56 86-129t32-155q0-8-5-13t-13-5v0zM442 140h-3t-1 2q-38 8-72 26t-62 42q-28 26-50 57t-36 67q-4 6-1 13t11 9q6 2 12-1t10-9q12-32 32-60t44-50q26-22 56-38t64-24q6-2 10-8t2-12-6-10-10-4v0zM810 430q-6 0-11 5t-5 13q0 58-22 109t-60 91q-40 38-91 60t-109 22q-8 0-13 5t-5 11q0 8 5 13t13 5q66 0 123-25t101-67q42-44 67-101t25-123q0-8-5-13t-13-5v0zM512 302q-30 0-56 12t-46 32-32 46-12 56 12 56 32 46 46 32 56 12 56-12 46-32 32-46 12-56-12-56-32-46-46-32-56-12v0zM512 558q-22 0-43-8t-35-24q-16-14-24-35t-8-43 8-43 24-35q14-16 35-24t43-8 43 8 35 24q16 14 24 35t8 43-8 43-24 35q-14 16-35 24t-43 8v0zM512 388q-12 0-23 5t-19 13-13 19-5 23 5 23 13 19 19 13 23 5 23-5 19-13 13-19 5-23-5-23-13-19-19-13-23-5v0zM512 474q-10 0-18-8t-8-18 8-18 18-8 18 8 8 18-8 18-18 8v0z" />
<glyph unicode="&#xe73d;" glyph-name="lista-2" d="M206 554q-42 0-79 16t-63 42q-28 28-44 65t-16 77q0 42 16 79t44 63q26 28 63 44t79 16q40 0 77-16t65-44q26-26 42-63t16-79q0-40-16-77t-42-65q-28-26-65-42t-77-16v0zM206 922q-36 0-66-13t-52-37q-24-22-37-52t-13-66q0-34 13-64t37-54q22-22 52-35t66-13q34 0 64 13t54 35q22 24 35 54t13 64q0 36-13 66t-35 52q-24 24-54 37t-64 13v0zM206 672h-4q-4 2-7 4t-5 4l-72 124q-4 6-2 13t8 9q6 4 13 2t11-8l62-104 288 236q4 4 11 3t13-5q4-6 3-13t-5-11l-304-250q-2-2-5-3t-5-1v0zM206-60q-42 0-79 16t-63 44q-28 26-44 63t-16 79q0 40 16 77t44 65q26 26 63 42t79 16q40 0 77-16t65-42q26-28 42-65t16-77q0-42-16-79t-42-63q-28-28-65-44t-77-16v0zM206 308q-36 0-66-13t-52-35q-24-24-37-54t-13-64q0-36 13-66t37-52q22-24 52-37t66-13q34 0 64 13t54 37q22 22 35 52t13 66q0 34-13 64t-35 54q-24 22-54 35t-64 13v0zM206 60h-4q-4 0-7 2t-5 6l-72 122q-4 6-2 13t8 11 13 2 11-8l62-106 288 236q4 4 11 4t13-6q4-6 3-13t-5-11l-304-248q-2-2-5-3t-5-1v0zM818 554q-40 0-77 16t-65 42q-26 28-42 65t-16 77q0 42 16 79t42 63q28 28 65 44t77 16q42 0 79-16t63-44q28-26 44-63t16-79q0-40-16-77t-44-65q-26-26-63-42t-79-16v0zM818 922q-34 0-64-13t-54-37q-22-22-35-52t-13-66q0-34 13-64t35-54q24-22 54-35t64-13q36 0 66 13t52 35q24 24 37 54t13 64q0 36-13 66t-37 52q-22 24-52 37t-66 13v0zM818-60q-40 0-77 16t-65 44q-26 26-42 63t-16 79q0 40 16 77t42 65q28 26 65 42t77 16q42 0 79-16t63-42q28-28 44-65t16-77q0-42-16-79t-44-63q-26-28-63-44t-79-16v0zM818 308q-34 0-64-13t-54-35q-22-24-35-54t-13-64q0-36 13-66t35-52q24-24 54-37t64-13q36 0 66 13t52 37q24 22 37 52t13 66q0 34-13 64t-37 54q-22 22-52 35t-66 13v0z" />
<glyph unicode="&#xe73e;" glyph-name="lista-3" d="M282 646h-238q-8 0-12 5t-6 13l2 238q-2 8 4 13t10 5h242q4 0 10-5t4-13l2-238q-2-8-6-13t-12-5v0zM62 680h202l2 206h-206l2-206zM162 728h-2t0 0q-6 0-8 3t-6 7l-38 82q-6 6-2 13t8 11q8 2 14 0t10-8l30-64 202 156q4 6 12 5t10-7q6-6 4-13t-4-11l-220-170q0-2-4-3l-4-1h-2zM282 306h-238q-8 0-12 5t-6 11l2 240q-2 6 4 11t10 5h242q4 0 10-5t4-11l2-240q-2-6-6-11t-12-5v0zM62 340h202l2 204h-206l2-204zM162 386h-2t0 0q-6 2-8 4l-6 6-38 84q-6 6-2 13t8 9q8 4 14 1t10-9l30-64 202 158q4 4 12 3t10-7q6-6 4-13t-4-11l-220-170q0-2-4-3l-4-1h-2zM282-36h-238q-8 0-12 5t-6 11l2 240q-2 6 4 11t10 5h242q4 0 10-5t4-11l2-240q-2-6-6-11t-12-5v0zM62-2h202l2 204h-206l2-204zM982 134h-476q-10 0-14 5t-6 13q2 6 6 11t14 5h476q8 0 12-5t6-11q-2-8-6-13t-12-5v0zM984 32h-480q-6 0-12 5t-4 13q-2 6 4 11t12 5h480q4 0 10-5t4-11q2-8-4-13t-10-5v0zM982 476h-476q-10 0-14 5t-6 11q2 8 6 13t14 5h476q8 0 12-5t6-13q-2-6-6-11t-12-5v0zM984 374h-480q-6 0-12 5t-4 11q-2 8 4 13t12 5h480q4 0 10-5t4-13q2-6-4-11t-10-5v0zM982 818h-476q-10 0-14 5t-6 11q2 8 6 13t14 5h476q8 0 12-5t6-13q-2-6-6-11t-12-5v0zM984 714h-480q-6 0-12 5t-4 13q-2 6 4 11t12 5h480q4 0 10-5t4-11q2-8-4-13t-10-5v0z" />
<glyph unicode="&#xe73f;" glyph-name="pessoa-6" d="M520 228q-46 0-87 23t-71 61q-32 36-51 82t-23 92q-10 2-18 8t-14 12q-8 8-11 17t-3 19v86q0 18 12 32t22 20v76q0 30 10 57t28 45q18 20 42 31t52 13q12 4 55 18t95 14q38 0 68-12t52-34q20-22 31-55t11-77v-68q20-2 34-6t20-12q8-8 11-18t3-24v-86q0-10-3-19t-9-17q-4-6-12-12t-16-8q-4-46-22-92t-48-84q-30-36-71-59t-87-23v0zM558 900q-52 0-95-16l-43-16h-8q-22 0-41-9t-33-23q-12-14-20-35t-8-45v-86q0-4-2-8t-6-6q-8-4-17-13t-9-15v-86q0-8 9-16t21-8q6 0 11-5t5-13q0-40 16-83t42-77q28-34 64-56t76-22 76 22 62 56 41 77 15 83q0 8 5 13t11 5q12 0 18 8t6 16v86q0 14-7 20t-45 6q-6 0-11 5t-5 11v86q0 36-8 63t-24 45-40 27-56 9v0zM778-28q-2 0-5 1t-7 3l-84 86q-6 4-6 11t6 13q4 4 11 4t13-4l72-74 160 158q4 6 11 6t13-6q4-4 4-11t-4-13l-172-170q-2-2-5-3t-7-1v0zM74-38q-6 0-11 5t-5 13q0 44 16 81t48 63q30 28 72 42t94 14h54l58 90q4 6 11 8t13-2 8-11-2-13l-64-98q-2-4-6-6t-8-2h-64q-36 0-72-10t-62-30q-28-20-45-52t-17-74q0-8-5-13t-13-5v0z" />
<glyph unicode="&#xe748;" glyph-name="cozinheiro" d="M154-56q-8 0-13 5t-5 13v26q0 30 16 56t40 46 55 31 59 11h104q6 0 11-5t5-11q0-8-5-13t-11-5h-104q-22 0-46-9t-44-23q-20-16-33-36t-13-42v-26q0-8-5-13t-11-5v0zM870-56q-6 0-11 5t-5 13v26q0 24-8 44t-20 36q-14 14-32 22t-40 8h-106q-6 0-11 5t-5 13q0 6 5 11t11 5h106q30 0 54-11t42-29q18-20 28-47t10-57v-26q0-8-5-13t-13-5v0zM520 34q-36 0-68 19t-56 51q-24 30-38 69t-16 77q-8 4-14 10t-12 14q-4 8-6 16t-2 18v42q0 12 4 32t30 26v52q0 28 7 45t19 25 29 10 37 2h172q24 0 40-4t24-12q8-10 10-26t2-40v-52q26-6 30-26t4-32v-42q0-22-7-36t-19-20q-2-40-15-79t-35-69q-22-32-53-51t-67-19v0zM434 508q-40 0-49-8t-9-40v-68q0-6-5-11t-13-5q-10 0-13-5t-3-21v-42q0-10 6-18t10-8q8 0 13-5t5-13q0-32 11-67t31-63q20-30 46-48t56-18q32 0 57 19t43 49q18 28 27 63t9 65q0 8 5 13t13 5q2 0 5 7t3 19v42q0 16-3 21t-13 5q-8 0-13 5t-5 11v68q0 36-5 42t-37 6h-172zM666 456q-8 0-13 5t-5 13v188q0 6 5 11t13 5h68q8 0 17 11t9 23q0 42-16 79t-44 65q-26 28-62 45t-76 17h-42q-14 0-26-6t-22-16q-10-8-15-21t-5-27q0-8-5-13t-13-5q-22 0-42-8t-36-24q-14-16-23-36t-9-44q0-12 9-26t17-14h8q8 0 13-5t5-11v-188q0-8-5-13t-13-5q-6 0-11 5t-5 13v172q-12 2-22 10t-16 18-10 22-4 22q0 30 10 55t28 43q16 20 40 33t52 15q2 18 11 34t23 28q12 12 30 19t36 7h42q48 0 90-19t72-53q32-32 51-75t19-93q0-12-5-24t-13-22-19-16-23-6h-52v-170q0-8-5-13t-11-5v0z" />
<glyph unicode="&#xe752;" glyph-name="casa-1" d="M1008 4q-2 0-5 1t-5 3l-432 372q0 2-3 5t-1 7l-2 458h-236l-2-236q2-4-2-8l-6-6q-8-2-12-2t-8 4l-288 260q-6 4-6 11t4 13q6 6 12 6t14-4l258-234 2 212q-2 8 4 13t10 5h276q4 0 10-5t4-13l2-466 424-366q6-4 6-11t-4-13q-4-2-6-4t-8-2v0z" />
<glyph unicode="&#xe755;" glyph-name="chip-1" d="M820 124h-614q-8 0-12 5t-6 11l2 616q-2 6 4 11t10 5h618q4 0 10-5t4-11l2-616q-2-6-6-11t-12-5v0zM224 158h578l2 580h-582l2-580zM682 260h-338q-10 0-14 5t-6 13l2 340q-2 8 4 13t12 5h342q6 0 12-5t4-13l2-340q-2-8-6-13t-14-5v0zM360 294h306l2 308h-310l2-308zM342 756q-6 0-12 5t-4 11l-2 170q2 8 6 13t14 5q4 0 10-5t4-13l2-170q-2-6-6-11t-12-5v0zM514 756q-10 0-14 5t-6 11l2 170q-2 8 4 13t12 5q10 0 14-5t6-13l-2-170q2-6-4-11t-12-5v0zM682 756q-4 0-10 5t-4 11l-2 170q2 8 6 13t12 5q6 0 12-5t4-13l2-170q-2-6-6-11t-14-5v0zM344-64q-10 0-14 5t-6 13l2 170q-2 6 4 11t12 5q8 0 12-5t6-11l-2-170q2-8-4-13t-10-5v0zM512-64q-6 0-12 5t-4 13l-2 170q2 6 6 11t14 5q6 0 12-5t4-11l2-170q-2-8-6-13t-14-5v0zM684-64q-8 0-12 5t-6 13l2 170q-2 6 4 11t10 5q10 0 14-5t6-11l-2-170q2-8-4-13t-12-5v0zM188 260h-168q-10 0-14 5t-6 13q2 6 6 11t14 5h168q8 0 12-5t6-11q-2-8-6-13t-12-5v0zM190 430h-172q-6 0-12 5t-4 13q-2 8 4 13t12 5h172q4 0 10-5t4-13q2-8-4-13t-10-5v0zM188 602h-168q-10 0-14 5t-6 11q2 8 6 13t14 5h168q8 0 12-5t6-13q-2-6-6-11t-12-5v0zM1008 260h-172q-4 0-10 5t-4 13q-2 6 4 11t10 5h172q6 0 12-5t4-11q2-8-4-13t-12-5v0zM1006 430h-168q-8 0-12 5t-6 13q2 8 6 13t12 5h168q10 0 14-5t6-13q-2-8-6-13t-14-5v0zM1008 602h-172q-4 0-10 5t-4 11q-2 8 4 13t10 5h172q6 0 12-5t4-13q2-6-4-11t-12-5v0z" />
<glyph unicode="&#xe764;" glyph-name="cd-3" d="M512-60q-104 0-197 40t-161 110q-70 68-110 161t-40 197 40 197 110 161q68 70 161 110t197 40 197-40 161-110q70-68 110-161t40-197-40-197-110-161q-68-70-161-110t-197-40v0zM512 922q-98 0-184-37t-150-103q-66-64-103-150t-37-184 37-184 103-150q64-66 150-103t184-37 184 37 150 103q66 64 103 150t37 184-37 184-103 150q-64 66-150 103t-184 37v0zM554 448q0-8-3-16t-9-14-14-9-16-3-16 3-14 9-9 14-3 16 3 16 9 14 14 9 16 3 16-3 14-9 9-14 3-16v0z" />
<glyph unicode="&#xe76a;" glyph-name="musica-1" d="M436-64h-6q-28 0-56 13t-50 37q-22 22-35 50t-13 58v12q0 6 5 11t13 5q6 0 11-5t5-11v-12q0-22 11-44t27-40q18-18 39-29t43-11h6q20 0 41 11t35 27q16 18 26 40t10 46v68q-32 2-59 7t-49 13q-24 10-42 23t-32 29q-12 16-20 35t-12 41-2 47 8 53q10 42 31 75t49 57 61 43 67 35v192q0 36 8 64t22 46 31 28 35 10q10 0 21-3t19-9q10-6 18-15t16-21q6-12 12-26t10-30 6-35 2-39q0-36-14-63t-38-47q-22-22-52-39t-62-33v-116q8 0 16-1t16-3q24-4 47-15t41-29q20-18 31-43t11-55-9-60-27-54q-20-24-51-41t-75-19v-70q0-30-12-59t-34-51q-20-22-46-35t-54-13v0zM548 582q-30-14-58-31t-52-39q-22-20-40-47t-26-63q-4-22-6-44t2-40q2-18 8-34t18-28q10-14 25-25t35-17q20-8 43-12t51-6v248q-12-2-23-8t-19-14q-10-8-18-20t-14-26q-2-8-8-10t-14 0q-6 2-9 8t-1 14q8 20 19 35t25 27q14 10 30 18t32 12v102zM582 450v-252q42 2 68 19t40 39q12 22 16 44t4 38q0 24-9 42t-23 32-32 23-38 13q-6 0-13 1t-13 1v0zM644 926q-12 0-23-7t-19-23q-10-14-15-35t-5-49v-174q26 14 50 28t42 32q18 16 29 37t11 47q0 22-3 40t-5 32q-4 14-9 24t-9 16q-8 16-20 24t-24 8v0z" />
<glyph unicode="&#xe76b;" glyph-name="predio-2" d="M530-64h-478q-8 0-13 5t-5 13v988q0 8 5 13t13 5h478q6 0 11-5t5-13v-988q0-8-5-13t-11-5v0zM68-30h444v956h-444v-956zM972-64h-442q-8 0-13 5t-5 13v716q0 6 5 11t13 5h442q8 0 13-5t5-11v-716q0-8-5-13t-13-5v0zM546-30h410v682h-410v-682zM426-46q-6 0-11 5t-5 11v170h-240v-170q0-6-5-11t-11-5q-8 0-13 5t-5 11v188q0 6 5 11t13 5h272q8 0 13-5t5-11v-188q0-6-5-11t-13-5v0zM256 278h-136q-8 0-13 5t-5 11v206q0 6 5 11t13 5h136q8 0 13-5t5-11v-206q0-6-5-11t-13-5v0zM136 312h102v170h-102v-170zM460 278h-136q-6 0-11 5t-5 11v206q0 6 5 11t11 5h136q8 0 13-5t5-11v-206q0-6-5-11t-13-5v0zM342 312h102v170h-102v-170zM870 380h-238q-8 0-13 5t-5 11v172q0 6 5 11t13 5h238q8 0 13-5t5-11v-172q0-6-5-11t-13-5v0zM648 414h206v136h-206v-136zM870 72h-238q-8 0-13 5t-5 13v170q0 8 5 13t13 5h238q8 0 13-5t5-13v-170q0-8-5-13t-13-5v0zM648 106h206v138h-206v-138zM324 584h-68q-8 0-13 5t-5 13v84h-84q-8 0-13 5t-5 13v68q0 8 5 13t13 5h84v84q0 8 5 13t13 5h68q8 0 13-5t5-13v-84h84q8 0 13-5t5-13v-68q0-8-5-13t-13-5h-84v-84q0-8-5-13t-13-5v0zM274 618h34v86q0 8 5 13t11 5h86v34h-86q-6 0-11 5t-5 11v86h-34v-86q0-6-5-11t-13-5h-86v-34h86q8 0 13-5t5-13v-86z" />
<glyph unicode="&#xe772;" glyph-name="fechar-1" d="M346 266q-4 0-7 1t-5 3q-4 4-4 12t4 12l332 332q4 4 11 4t13-4q4-6 4-13t-4-11l-332-332q-2-2-5-3t-7-1v0zM678 266q-4 0-7 1t-5 3l-332 332q-4 4-4 11t4 13q4 4 12 4t12-4l332-332q4-4 4-12t-4-12q-2-2-5-3t-7-1v0zM512-38q-100 0-189 38t-155 104-104 155-38 189 38 189 104 155 155 104 189 38 189-38 155-104 104-155 38-189-38-189-104-155-155-104-189-38v0zM512 900q-94 0-176-35t-144-97-97-144-35-176 35-176 97-144 144-97 176-35 176 35 144 97 97 144 35 176-35 176-97 144-144 97-176 35v0z" />
<glyph unicode="&#xe773;" glyph-name="fechar-2" d="M512 926q98 0 185-38t153-102q64-66 102-153t38-185-38-185-102-153q-66-64-153-102t-185-38-185 38-153 102q-64 66-102 153t-38 185 38 185 102 153q66 64 153 102t185 38v0zM512 960q-106 0-199-40t-163-110-110-163-40-199 40-199 110-163 163-110 199-40 199 40 163 110 110 163 40 199-40 199-110 163-163 110-199 40v0 0zM320 238q-4 0-7 2t-5 4q-6 4-6 12t6 12l384 384q4 6 12 6t12-6q6-4 6-12t-6-12l-384-384q-2-2-5-4t-7-2v0zM704 238q-4 0-7 2t-5 4l-384 384q-6 4-6 12t6 12q4 6 12 6t12-6l384-384q6-4 6-12t-6-12q-2-2-5-4t-7-2v0z" />
<glyph unicode="&#xe774;" glyph-name="loja-1" d="M938-64h-820q-6 0-12 5t-4 13l-2 596h36l-2-580h788l-2 580h36l-2-596q2-8-4-13t-12-5v0zM932 520q-10 0-22 3t-20 9q-12 6-19 14t-15 18q-4-10-14-18t-20-14q-12-6-23-9t-25-3q-12 0-25 4t-23 10q-12 6-21 14t-17 18q-6-10-16-18t-18-14q-14-6-25-10t-27-4q-10 0-24 4t-22 10q-14 6-22 14t-16 18q-6-10-16-18t-20-14q-12-6-24-10t-26-4q-12 0-25 4t-23 10q-12 6-21 14t-17 18q-6-10-16-18t-18-14q-14-6-25-10t-27-4q-12 0-26 4t-22 10q-14 6-22 14t-18 20q-4-12-15-20t-19-14q-14-6-26-10t-28-4q-14 0-31 9t-27 23q-14 14-20 32t-8 38l2 22q-2 2-1 3t1 3l118 300q0 4 5 7t9 3h772q2 0 8-3t6-9l106-298q-2-2-1-3t-1-3l2-22q-2-22-8-41t-20-31q-10-14-27-22t-35-8h-2zM876 622q2-10 4-23t10-23q4-8 16-15t26-7q18 0 27 7t19 15q4 10 8 23t2 23l2 20-100 284h-744l-114-284 2-20q-2-14 4-26t12-22q8-8 17-14t19-6q14 0 28 6t20 14q12 10 17 23t7 25q-2 8 4 13t12 5q8 0 12-5t6-13q-2-12 5-25t13-23q12-8 24-14t28-6q12 0 26 6t20 14q12 10 16 22t6 26q-2 8 4 13t12 5q8 0 12-5t6-13q-2-14 5-26t15-22q10-8 22-14t28-6q12 0 25 6t21 14q12 10 16 22t6 26q-2 8 4 13t12 5q8 0 12-5t6-13q-2-14 4-26t14-22q12-8 23-14t27-6q12 0 26 6t20 14q12 10 16 22t6 26q-2 8 4 13t12 5q8 0 12-5t6-13q-2-14 5-26t13-22q12-8 24-14t28-6q12 0 25 6t21 14q10 10 15 22t7 26q-2 8 4 13t10 5q10 0 14-5t6-13h-2zM788 48q-6 0-12 5t-4 11q-2 30-21 55t-55 43q-34 20-81 31t-95 11q-54 0-99-11t-81-31q-34-18-55-43t-19-55q-2-6-6-11t-12-5q-6 0-12 5t-4 11q-2 38 21 69t61 55q40 24 91 37t115 13q58 0 111-13t91-37q40-24 61-55t23-69q-2-6-6-11t-12-5v0zM494 226q-8 0-12 5t-6 13l2 48q-16 8-35 27t-21 45q2 16 9 31t23 25q10 12 27 18t31 6q18 0 30-6t24-16q8-12 14-26t4-32q2-6-4-11t-10-5q-10 0-14 5t-6 11q2 18-8 32t-28 14q-12 0-21-4t-19-10q-6-6-12-14t-4-18q-2-14 16-28t26-20q8-2 9-6t3-8l-2-58q2-8-4-13t-12-5v0z" />
<glyph unicode="&#xe78c;" glyph-name="nuvem-1" horiz-adv-x="1230" d="M1042 30h-598q-48 0-90 18t-74 48-49 71-17 89 17 89 49 71q30 30 72 48t90 18q16 56 50 104t78 82q46 32 101 51t115 19q74 0 139-28t113-76q50-50 78-115t28-139v-6t-2-6q22-14 38-31t26-35q12-20 17-43t5-45q0-40-14-73t-40-57q-24-26-59-40t-73-14v0zM444 448q-42 0-78-15t-62-41-41-61-15-75 15-75 41-61 62-41 78-15h598q32 0 60 12t48 32 32 47 12 59q0 20-5 39t-15 35q-10 18-24 32t-34 24q-4 2-6 6t-2 10v4q0 4 1 8t1 8q0 68-26 127t-70 103-103 69-125 25q-56 0-107-18t-93-50-72-77-42-99q-2-6-7-10t-11-4q-2 2-3 2h-7zM120 180q-2 0-5 1t-5 1q-26 16-46 38t-34 46q-14 26-22 55t-8 59q0 48 18 89t48 73q32 32 74 50t88 18q18 56 51 103t79 81q44 34 99 53t115 19q24 0 47-3t45-9q24-6 45-15t43-21q6-4 7-11t-1-13q-4-6-11-8t-13 2q-18 12-38 20t-40 12q-20 6-41 9t-43 3q-56 0-107-18t-93-50q-40-32-70-77t-44-99q-2-6-7-10t-11-4q-2 0-3 1t-3 1h-4q-40 0-76-16t-62-42-42-62-16-76q0-26 7-50t19-46 29-40 39-32q6-4 8-11t-2-13q-2-4-6-6t-8-2v0z" />
<glyph unicode="&#xe792;" glyph-name="cod-1" d="M1006 22h-990q-6 0-12 5t-4 11l-2 820q2 6 6 11t14 5h986q10 0 14-5t6-11l-2-820q2-6-4-11t-12-5v0zM32 56h958l-2 784h-954l-2-784zM990 670h-958q-4 0-10 5t-4 11q-2 8 4 13t10 5h958q4 0 10-5t4-13q2-6-4-11t-10-5v0zM350 130q-2 0-7 2t-7 6l-130 206q-2 4-3 9t5 11l128 176q6 4 12 5t14-3q4-4 6-11t-6-13l-120-166 122-196q6-6 3-13t-7-11q-4 0-5-1t-5-1v0zM690 130q-4 0-5 1t-5 1q-4 4-7 11t3 13l122 196-120 166q-8 6-6 13t6 11q8 4 14 3t12-5l128-176q6-6 5-11t-1-9l-132-206q-2-4-6-6t-8-2v0zM432 168l-6 2q-8 4-9 11t1 13l170 302q2 6 10 8t12-2q8-2 9-9t-1-13l-170-302q0-4-5-7t-9-3h-2zM134 764q2-10-5-16t-15-6q-10 0-15 6t-7 16q2 8 7 15t15 7q8 0 15-7t5-15v0zM222 764q-2-10-8-16t-16-6q-6 0-14 6t-6 16q-2 8 6 15t14 7q10 0 16-7t8-15v0zM304 764q2-10-5-16t-13-6q-12 0-17 6t-7 16q2 8 7 15t17 7q6 0 13-7t5-15v0z" />
<glyph unicode="&#xe793;" glyph-name="cod-2" d="M302 168q-4 0-7 2t-5 4l-262 262q-6 4-6 12t6 12l262 262q4 6 11 6t13-6q4-4 4-11t-4-13l-250-250 250-250q4-6 4-13t-4-11q-2-2-6-4t-6-2v0zM722 168q-2 0-6 2t-6 4q-4 4-4 11t4 13l250 250-250 250q-4 4-4 12t4 12q6 6 13 6t11-6l262-262q6-4 6-12t-6-12l-262-262q-2-2-5-4t-7-2v0zM408 154h-6q-6 4-9 10t-1 12l214 556q2 6 9 9t13 1q6-4 9-10t1-12l-214-556q-2-4-6-7t-10-3v0z" />
<glyph unicode="&#xe79a;" glyph-name="dinheiro-1" d="M512 798q72 0 136-28t112-74q46-48 74-112t28-136-28-136-74-112q-48-46-112-74t-136-28-136 28-112 74q-46 48-74 112t-28 136 28 136 74 112q48 46 112 74t136 28v0zM512 832q-80 0-150-30t-122-82-82-122-30-150 30-150 82-122 122-82 150-30 150 30 122 82 82 122 30 150-30 150-82 122-122 82-150 30v0 0zM514 264q-24 0-44 6t-34 20q-16 12-23 29t-7 37q0 8 5 13t11 5q8 0 13-5t5-13q0-16 6-27t18-19q10-6 23-9t27-3 27 3 23 9q12 8 18 19t6 27q0 14-3 22t-11 16-21 15-33 17l-28 14q-20 10-36 19t-28 19q-10 10-16 25t-6 37q0 20 7 38t23 30q14 12 34 19t44 7 44-7 34-19 21-30 7-38q0-8-5-13t-11-5q-8 0-13 5t-5 13q0 40-30 50t-42 10q-14 0-27-4t-23-10q-12-8-18-19t-6-27q0-14 3-22t11-16q6-8 19-15t33-17l30-14q20-10 36-19t26-19q12-10 18-25t6-37q0-20-8-37t-22-29q-14-14-34-20t-44-6v0zM512 602q-8 0-13 5t-5 11v44q0 6 5 11t13 5 13-5 5-11v-44q0-6-5-11t-13-5v0zM512 218q-8 0-13 5t-5 11v44q0 6 5 11t13 5 13-5 5-11v-44q0-6-5-11t-13-5v0zM512 926q98 0 185-38t153-102q64-66 102-153t38-185-38-185-102-153q-66-64-153-102t-185-38-185 38-153 102q-64 66-102 153t-38 185 38 185 102 153q66 64 153 102t185 38v0zM512 960q-106 0-199-40t-163-110-110-163-40-199 40-199 110-163 163-110 199-40 199 40 163 110 110 163 40 199-40 199-110 163-163 110-199 40v0 0z" />
<glyph unicode="&#xe79b;" glyph-name="dinheiro-2" d="M512 926q98 0 185-38t153-102q64-66 102-153t38-185-38-185-102-153q-66-64-153-102t-185-38-185 38-153 102q-64 66-102 153t-38 185 38 185 102 153q66 64 153 102t185 38v0zM512 960q-106 0-199-40t-163-110-110-163-40-199 40-199 110-163 163-110 199-40 199 40 163 110 110 163 40 199-40 199-110 163-163 110-199 40v0 0zM512 90v0h-17t-17 2q-8 0-12 5t-4 13q0 6 6 11t12 5q8-2 16-2h16t13-5 5-13q0-6-5-11t-13-5v0zM612 104q-6 0-11 3t-5 9q-4 8 0 14t10 8q8 2 16 5t14 5q6 4 13 1t9-9q4-8 1-14t-9-10q-8-2-17-5t-17-5q0-2-2-2h-2zM382 116h-6l-32 16q-6 2-8 9t0 13q4 6 11 9t13-1 13-7 15-7q6-2 9-9t1-13-7-8-9-2v0zM728 168q-2 0-6 1t-6 5q-4 4-4 11t6 13q6 4 12 10t12 10q4 6 11 6t13-6q4-4 4-11t-4-13q-6-6-13-12t-13-10q-2-2-5-3t-7-1v0zM272 190q-4 0-7 1t-7 3q-6 6-12 13t-10 13q-6 6-5 13t7 11 13 4 11-6 10-12l12-12q4-4 4-11t-4-13q-4-2-7-3t-5-1v0zM814 270q-2 0-4 1t-4 1q-8 4-10 11t2 13 7 13 7 15q2 6 9 9t13 1q6-4 9-10t1-14l-8-16t-8-14q-2-6-6-8t-8-2v0zM196 300q-4 0-8 3t-6 7q-4 8-7 16t-5 18q-2 6 1 12t9 8q8 2 14-1t8-9q2-8 5-16t5-14q4-8 1-14t-9-8q-2-2-4-2h-4zM852 398h-2q-6 0-11 6t-5 12q2 8 2 16v16t5 13 13 5q6 0 11-5t5-11v-19t-2-19q0-6-5-10t-11-4v0zM170 430q-6 0-11 5t-5 13v0 17t2 17q0 8 5 12t13 4q6 0 11-6t5-12q-2-8-2-16v-16t-5-13-13-5v0zM838 532q-6 0-10 3t-6 9q-2 8-5 15t-5 15q-4 6-1 12t9 10q6 2 13-1t9-9q4-8 7-16t5-16-1-14-9-8h-6zM196 560q-2 0-3 1t-3 1q-6 2-9 9t-1 13l16 32q2 6 9 8t13 0q6-4 8-11t0-13q-4-6-7-14t-7-14q-2-6-6-9t-10-3v0zM776 648q-4 0-8 2t-6 4q-6 6-11 12t-11 12q-4 6-4 13t4 11q6 6 13 6t11-6l12-12t12-14q4-6 4-13t-6-11q-2-2-5-3t-5-1v0zM270 672q-4 0-7 1t-5 3q-6 6-6 13t6 11q6 8 13 13t13 11q6 4 13 4t11-6 4-13-6-11-12-10l-12-12q-2-2-5-3t-7-1v0zM672 732q-2 0-4 1t-4 1q-8 4-15 8t-13 6q-8 2-10 9t0 13 9 9 13 1l32-16q6-2 8-9t0-13q-4-4-8-7t-8-3v0zM380 746q-4 0-9 3t-7 7q-2 6 1 13t9 9q8 4 16 7t16 5 14-1 8-9q2-8-1-14t-11-8q-6-2-14-5t-14-5q-2-2-4-2h-4zM544 770v0h-2q-6 2-14 2h-16t-13 5-5 13q0 6 5 11t11 5h19t17-2q8 0 12-5t4-13q-2-6-7-11t-11-5v0zM514 322q-16 0-30 5t-24 15q-10 8-16 20t-6 28q0 6 5 11t13 5q6 0 11-5t5-11q0-24 17-28t25-4 25 4 17 28q0 12-7 19t-33 19l-18 10q-14 6-25 12t-19 14q-8 6-12 17t-4 25q0 16 6 28t16 22q10 8 24 13t30 5q18 0 31-5t23-13q10-10 16-22t6-28q0-6-5-11t-13-5q-6 0-11 5t-5 11q0 22-16 28t-26 6q-8 0-25-5t-17-29q0-12 7-19t33-19l18-10q14-6 25-12t19-14q8-6 12-17t4-25q0-16-5-28t-15-20q-10-10-24-15t-32-5v0zM514 558q-6 0-11 5t-5 13v26q0 8 5 13t11 5q8 0 13-5t5-13v-26q0-8-5-13t-13-5v0zM514 260q-6 0-11 5t-5 13v42q0 8 5 13t11 5q8 0 13-5t5-13v-42q0-8-5-13t-13-5v0z" />
<glyph unicode="&#xe79d;" glyph-name="dinheiro-3" d="M734 730q-38 0-86 3t-88 13q-42 10-71 25t-29 39 29 40 71 26q40 8 88 12t86 4q36 0 83-4t89-12q42-10 71-26t29-40-28-39-70-25-89-13-85-3v0zM734 858q-112 0-174-18t-66-30q4-12 66-29t174-17 174 17 64 29q-2 12-64 30t-174 18v0zM430 174v34q112 0 174 18t66 30v0l-6 6t-28 14l12 32q28-10 42-23t14-29q0-24-29-40t-71-24q-40-10-88-14t-86-4v0zM426 90q-38 0-85 3t-89 13-70 25-28 39v56h34v-56q2-12 65-29t173-17q120 0 179 19t61 29v88h34v-90q0-24-30-39t-72-25-89-13-83-3v0zM388 260q-38 0-86 4t-90 12q-40 10-69 26t-29 40h34q2-12 65-30t175-18q110 0 173 18t65 30l-3 3t-9 7l16 30q16-8 23-19t7-21q0-24-28-40t-70-26q-42-8-89-12t-85-4v0zM392 176q-38 0-85 3t-89 13q-42 8-70 24t-28 40v74q0 6 5 11t11 5q8 0 13-5t5-11v-74q2-12 65-29t173-17q120 0 179 18t61 28v74q0 6 5 11t11 5q8 0 13-5t5-11v-74q0-24-30-40t-72-24q-42-10-89-13t-83-3v0zM290 388q-38 0-85 4t-89 12q-42 10-70 26t-28 40 28 39 70 25q42 8 89 12t85 4q36 0 83-3t89-13 72-25 30-39-29-40-71-26q-40-8-88-12t-86-4v0zM290 516q-112 0-174-17t-64-29q2-12 64-30t174-18 174 18 66 30q-4 12-66 29t-174 17v0zM290 304q-38 0-85 3t-89 13q-42 8-70 24t-28 40v82h34v-82q2-12 64-29t174-17q120 0 179 18t61 28v82h34v-82q0-24-30-40t-72-24q-42-10-89-13t-83-3v0zM382 90q-44 0-89 4t-83 10q-40 8-70 18t-44 24q-6 6-8 13t-2 11q0 16 10 26t24 16 28 9 22 5l6-34q-36-6-46-13t-10-9q4-12 78-29t190-17v-34h-6zM358 4q-38 0-85 4t-89 12q-42 10-70 26t-28 40v72q0 8 5 13t11 5q8 0 13-5t5-13v-72q2-12 64-30t174-18q120 0 179 19t61 29v38q0 8 5 13t11 5q8 0 13-5t5-13v-38q0-24-30-40t-72-26q-42-8-89-12t-83-4v0zM734 602q-38 0-86 3t-88 13q-42 10-71 25t-29 39q0 8 5 13t13 5q6 0 11-5t5-13q4-12 66-29t174-17 174 17 64 29q0 8 5 13t13 5q6 0 11-5t5-13q0-24-28-39t-70-25-89-13-85-3v0zM734 474q-38 0-86 3t-88 13q-42 10-71 25t-29 39q0 8 5 13t13 5q6 0 11-5t5-13q4-12 66-29t174-17 174 17 64 29q0 8 5 13t13 5q6 0 11-5t5-13q0-24-28-39t-70-25-89-13-85-3v0zM734 346q-18 0-42 1t-50 3q-24 0-47 3t-39 5q-6 0-10 6t-4 12q2 8 7 12t13 2q14-2 36-4t46-2q26-2 50-3t40-1q112 0 174 17t64 29q0 8 5 13t13 5q6 0 11-5t5-13q0-24-28-39t-70-25-89-13-85-3v0zM734 218h-44q-6 0-11 6t-5 12q0 8 5 12t13 4h42q112 0 174 17t64 29q0 8 5 13t13 5q6 0 11-5t5-13q0-24-28-39t-70-25-89-13-85-3v0zM460 808h34v-308h-34v308zM732 98q-10 0-43 5t-51 23q-6 4-6 11t4 13 11 6 13-4q12-10 36-15t36-5q110 0 174 18t66 30v628q0 6 5 11t13 5q6 0 11-5t5-11v-628q0-24-29-40t-73-26q-42-8-90-12t-82-4v0z" />
<glyph unicode="&#xe7ad;" glyph-name="pc-1" d="M940 106h-530q-8 0-13 5t-5 13q0 6 5 11t13 5h530q16 0 33 16t17 30v574q0 16-11 40t-39 24h-530q-8 0-13 5t-5 11q0 8 5 13t13 5h530q22 0 38-10t26-24 15-31 5-33v-574q0-14-8-29t-20-25q-12-12-27-19t-29-7v0zM990 722h-580q-8 0-13 5t-5 11q0 8 5 13t13 5h580q6 0 11-5t5-13q0-6-5-11t-11-5v0zM990 244h-580q-8 0-13 5t-5 11q0 8 5 13t13 5h580q6 0 11-5t5-13q0-6-5-11t-11-5v0zM628-64h-252q-8 0-13 5t-5 13q0 6 5 11t13 5h230l-30 136h-166q-8 0-13 5t-5 13q0 6 5 11t13 5h180q6 0 11-3t7-9l36-172q0-4-1-7t-3-7q-2-2-6-4t-6-2v0zM682-64h-340q-8 0-13 5t-5 13q0 6 5 11t13 5h340q8 0 13-5t5-11q0-8-5-13t-13-5v0zM392-64h-374q-8 0-13 5t-5 13v988q0 8 5 13t13 5h374q8 0 13-5t5-13v-988q0-8-5-13t-13-5v0zM34-30h342v956h-342v-956zM324 414h-238q-8 0-13 5t-5 11v138q0 6 5 11t13 5h238q8 0 13-5t5-11v-138q0-6-5-11t-13-5v0zM102 448h206v102h-206v-102zM376 210h-342q-6 0-11 5t-5 11q0 8 5 13t11 5h342q6 0 11-5t5-13q0-6-5-11t-11-5v0zM308 482h-206q-6 0-11 5t-5 13q0 6 5 11t11 5h206q6 0 11-5t5-11q0-8-5-13t-11-5v0zM162 90q0-10-6-16t-16-6q-8 0-14 6t-6 16q0 8 6 14t14 6q10 0 16-6t6-14v0zM290 90q0-10-6-16t-16-6q-8 0-14 6t-6 16q0 8 6 14t14 6q10 0 16-6t6-14v0z" />
<glyph unicode="&#xe7b0;" glyph-name="pessoas-3" d="M490 202h-6q-30 0-57 12t-49 34q-20 20-34 47t-16 59q-14 4-26 13t-20 23q-8 12-13 27t-5 29v42q0 16 5 34t31 24v58q0 26 7 48t19 38q14 16 32 25t40 11q10 2 19 6t19 6q16 8 33 14t33 10q18 6 34 9t32 3q26 0 46-10t34-30 20-49 6-69v-76q10-6 22-20t12-32v-42q0-14-5-29t-13-27q-8-14-20-23t-26-13q-2-32-15-59t-35-49q-20-20-47-32t-57-12v0zM568 738q-14 0-28-2t-30-8q-16-4-31-10t-31-12q-12-4-22-7t-20-7h-4q-20 0-33-8t-21-20q-8-14-11-29t-3-31v-72q0-8-5-13t-13-5q-12 0-14-3t-2-23v-42q0-10 3-21t9-19 14-14 18-6q6 0 11-5t5-11q0-28 10-52t28-42q16-18 39-29t47-11h6q26 0 47 11t39 29q16 18 25 42t9 52q0 6 5 11t13 5 17 6 15 14 10 19 4 21v42q0 8-9 16t-15 12q-4 2-7 6t-3 10v84q0 42-6 66t-18 36q-10 14-23 17t-25 3v0zM856-36h-728q-8 0-13 5t-5 11q0 52 18 95t48 75q30 30 73 48t95 18q6 0 11-5t5-13q0-6-5-11t-11-5q-42 0-77-14t-61-38-42-58-18-74h692q-4 42-19 76t-41 60q-26 24-61 38t-77 14q-8 0-13 5t-5 11q0 8 5 13t13 5q50 0 93-18t73-50q32-32 49-76t17-96q0-6-5-11t-11-5v0zM22 514q-8 0-13 5t-5 13q0 24 10 47t26 39q18 18 40 27t48 9q8 0 13-5t5-11q0-8-5-13t-13-5q-18 0-35-7t-29-19-19-28-7-34q0-8-5-13t-11-5v0zM1002 514q-6 0-11 5t-5 13q0 18-7 34t-19 28-29 19-35 7q-8 0-13 5t-5 13q0 6 5 11t13 5q26 0 48-9t40-27q16-16 26-39t10-47q0-8-5-13t-13-5v0zM214 642q-26 0-45 23t-31 55q-14 30-21 61t-7 49q0 22 9 40t21 32q14 14 33 22t41 8q20 0 39-8t33-22 22-32 8-40q0-18-7-49t-21-61q-12-32-31-55t-43-23v0zM214 898q-14 0-27-5t-21-15q-10-10-15-22t-5-26q0-18 6-44t16-52q10-24 22-41t24-17q10 0 22 17t22 41q10 26 17 52t7 44q0 14-6 26t-14 22q-10 10-22 15t-26 5v0zM810 642q-24 0-43 23t-31 55q-14 30-21 61t-7 49q0 22 8 40t22 32 33 22 39 8q22 0 41-8t33-22q12-14 21-32t9-40q0-18-7-49t-21-61q-12-32-31-55t-45-23v0zM810 898q-14 0-26-5t-22-15q-8-10-14-22t-6-26q0-18 7-44t17-52q10-24 22-41t22-17q12 0 24 17t22 41q10 26 16 52t6 44q0 14-5 26t-15 22q-8 10-21 15t-27 5v0z" />
<glyph unicode="&#xe7b3;" glyph-name="atendente" d="M706 0h-108v34h108q16 0 39 20t23 34v288h34v-288q0-14-10-30t-24-30q-14-12-31-20t-31-8v0zM780 472q-4 0-9 3t-7 7l-14 35t-8 25q-6 30-21 74t-43 86q-28 40-71 70t-103 30q-62 0-105-30t-71-70q-28-42-43-86t-21-74q0-2-1-5t-1-5q0-8-1-18t-7-20q-2-8-9-10t-13 0q-6 4-9 10t1 12q2 8 3 15t1 13q0 4 1 8t1 8q16 68 42 121t60 89q34 38 78 57t94 19q48 0 92-19t78-57q36-36 61-89t41-121q2-6 6-19t14-35q2-6 0-13t-8-9q-2-2-4-2h-4zM786 564q-8 0-13 5t-5 11v94q0 54-20 100t-56 82q-34 34-81 54t-99 20-99-20-81-54q-36-36-56-82t-20-100v-60q0-6-5-11t-13-5q-6 0-11 5t-5 11v60q0 60 23 113t61 93q40 38 93 61t113 23 113-23 93-61q38-40 61-93t23-113v-94q0-6-5-11t-11-5v0zM494 120q-42 0-79 18t-65 50q-28 30-44 72t-16 88v130q0 8 5 13t13 5q6 0 11-5t5-13v-130q0-40 13-76t37-62q22-26 54-41t66-15q36 0 67 16t55 42q22 26 36 61t14 75v164q0 8 5 13t11 5q8 0 13-5t5-13v-164q0-46-16-88t-44-72q-28-32-65-50t-81-18v0zM238 342h-76q-18 0-32 5t-24 15-15 23-5 29v128q0 16 5 30t15 22q10 10 24 15t32 5h76q8 0 13-5t5-11v-240q0-6-5-11t-13-5v0zM162 580q-12 0-27-6t-15-32v-128q0-26 15-32t27-6h60v204h-60zM844 342h-58q-8 0-13 5t-5 11v240q0 6 5 11t13 5h58q18 0 35-5t29-13q14-10 22-23t8-31v-128q0-16-8-30t-22-24q-12-8-29-13t-35-5v0zM802 376h42q12 0 22 3t20 7q8 6 13 13t5 15v128q0 8-5 15t-13 13q-10 4-20 7t-22 3h-42v-204zM568-68h-128q-14 0-25 6t-19 16-12 22-4 24 4 24 12 22 19 16 25 6h128q12 0 23-6t19-16 12-22 4-24-4-24-12-22-19-16-23-6v0zM440 34q-10 0-18-11t-8-23 8-23 18-11h128q8 0 16 11t8 23-8 23-16 11h-128zM754 482q-22 0-49 12t-55 30q-30 20-55 43t-43 47q-42-96-172-114t-132-18q-8 0-13 5t-5 13q0 6 5 11t13 5q2 0 142 22t140 134q0 6 5 11t13 5q6 0 11-5t5-11q0-18 21-45t51-51 63-42 55-18q6 0 11-5t5-11q0-8-5-13t-11-5v0z" />
<glyph unicode="&#xe7b4;" glyph-name="contraste" d="M512 926q98 0 185-38t153-102q64-66 102-153t38-185-38-185-102-153q-66-64-153-102t-185-38-185 38-153 102q-64 66-102 153t-38 185 38 185 102 153q66 64 153 102t185 38v0zM512 960q-106 0-199-40t-163-110-110-163-40-199 40-199 110-163 163-110 199-40 199 40 163 110 110 163 40 199-40 199-110 163-163 110-199 40v0 0zM538 46q-8 0-13 5t-5 13v768q0 8 5 13t13 5q68 0 139-32t129-86 96-127 38-157-38-157-96-127-129-86-139-32v0zM556 814v-732q60 4 122 35t112 81q52 50 83 114t31 136-31 136-83 114q-50 50-112 81t-122 35v0zM554 790h44v-44h-44v44zM554 704h44v-42h-44v42zM554 618h44v-42h-44v42zM554 534h44v-44h-44v44zM554 448h44v-42h-44v42zM554 362h44v-42h-44v42zM554 278h44v-44h-44v44zM554 192h44v-42h-44v42zM554 106h44v-42h-44v42zM598 832h42v-42h-42v42zM598 746h42v-42h-42v42zM598 662h42v-44h-42v44zM598 576h42v-42h-42v42zM598 490h42v-42h-42v42zM598 406h42v-44h-42v44zM598 320h42v-42h-42v42zM598 234h42v-42h-42v42zM598 150h42v-44h-42v44zM640 790h42v-44h-42v44zM640 704h42v-42h-42v42zM640 618h42v-42h-42v42zM640 534h42v-44h-42v44zM640 448h42v-42h-42v42zM640 362h42v-42h-42v42zM640 278h42v-44h-42v44zM640 192h42v-42h-42v42zM682 746h44v-42h-44v42zM682 662h44v-44h-44v44zM682 576h44v-42h-44v42zM682 490h44v-42h-44v42zM682 406h44v-44h-44v44zM682 320h44v-42h-44v42zM682 234h44v-42h-44v42zM682 150h44v-44h-44v44zM726 704h42v-42h-42v42zM726 618h42v-42h-42v42zM726 534h42v-44h-42v44zM726 448h42v-42h-42v42zM726 362h42v-42h-42v42zM726 278h42v-44h-42v44zM726 192h42v-42h-42v42zM768 662h42v-44h-42v44zM768 576h42v-42h-42v42zM768 490h42v-42h-42v42zM768 406h42v-44h-42v44zM768 320h42v-42h-42v42zM768 234h42v-42h-42v42zM810 618h44v-42h-44v42zM810 534h44v-44h-44v44zM810 448h44v-42h-44v42zM810 362h44v-42h-44v42zM810 278h44v-44h-44v44zM854 576h42v-42h-42v42zM854 490h42v-42h-42v42zM854 406h42v-44h-42v44zM854 320h42v-42h-42v42z" />
<glyph unicode="&#xe7bd;" glyph-name="pessoas-4" d="M398-50h-238q-8 0-13 5t-5 11v274l-30 38q-2 2-3 5t-1 7v278q0 20 9 38t23 32q14 12 33 20t41 8h130q22 0 41-8t35-20q14-14 22-32t8-38v-278q0-4-1-7t-3-5l-30-38v-274q0-6-5-11t-13-5v0zM176-16h206v262q0 4 1 7t3 5l30 38v272q0 14-6 25t-16 21q-10 8-23 13t-27 5h-130q-16 0-28-5t-22-13q-10-10-16-21t-6-25v-272l32-38q2-2 2-5v-269zM278 698q-24 0-47 10t-39 28q-18 16-27 39t-9 47q0 26 9 49t27 39q16 16 39 26t47 10q26 0 49-10t39-26q18-16 27-39t9-49q0-24-9-47t-27-39q-16-18-39-28t-49-10v0zM278 912q-18 0-34-7t-28-19-19-28-7-36q0-18 7-34t19-28 28-19 34-7q20 0 36 7t28 19 19 28 7 34q0 20-7 36t-19 28-28 19-36 7v0zM808-50h-204q-8 0-13 5t-5 11v154h-74q-4 0-8 2t-6 4q-2 4-3 8t1 8l56 234v192q0 22 6 40t18 32q12 12 28 19t36 7h130q20 0 37-7t29-19q10-14 17-32t7-40v-192l54-230q0-2 1-4t1-4q0-8-6-13t-12-5v0 0h-72v-154q0-6-5-11t-13-5v0zM620-16h172v154q0 6 5 11t11 5h68l-50 216v198q0 12-9 38t-47 26h-130q-38 0-46-26t-8-38v-198l-52-216h70q6 0 11-5t5-11v-154zM706 698q-26 0-49 10t-39 28q-16 16-26 39t-10 47q0 26 10 49t26 39 39 26 49 10 48-10 40-26q16-16 26-39t10-49q0-24-10-47t-26-39q-18-18-40-28t-48-10v0zM706 912q-18 0-35-7t-29-19-19-28-7-36q0-18 7-34t19-28 29-19 35-7 34 7 28 19q14 12 21 28t7 34q0 20-7 36t-21 28q-12 12-28 19t-34 7v0z" />
<glyph unicode="&#xe7bf;" glyph-name="chip-2" d="M854 90h-682q-8 0-12 5t-6 11l2 684q-2 6 4 11t10 5h686q4 0 10-5t4-11l2-684q-2-6-6-11t-12-5v0zM190 124h646l2 648h-650l2-648zM716 226h-406q-10 0-14 5t-6 13l2 408q-2 8 4 13t12 5h410q6 0 12-5t4-13l2-408q-2-8-6-13t-14-5v0zM326 260h374l2 376h-378l2-376zM274 790q-6 0-12 5t-4 11l-2 102q2 8 6 13t14 5q4 0 10-5t4-13l2-102q-2-6-6-11t-12-5v0zM206 790q-8 0-12 5t-6 11l2 102q-2 8 4 13t10 5q10 0 14-5t6-13l-2-102q2-6-4-11t-12-5v0zM342 790q-6 0-12 5t-4 11l-2 102q2 8 6 13t14 5q4 0 10-5t4-13l2-102q-2-6-6-11t-12-5v0zM412 790q-10 0-14 5t-6 11l2 102q-2 8 4 13t12 5q8 0 12-5t6-13l-2-102q2-6-4-11t-10-5v0zM478 790q-6 0-12 5t-4 11l-2 102q2 8 6 13t14 5q4 0 10-5t4-13l2-102q-2-6-6-11t-12-5v0zM548 790q-8 0-12 5t-6 11l2 102q-2 8 4 13t10 5q10 0 14-5t6-13l-2-102q2-6-4-11t-12-5v0zM614 790q-4 0-10 5t-4 11l-2 102q2 8 6 13t12 5q6 0 12-5t4-13l2-102q-2-6-6-11t-14-5v0zM684 790q-8 0-12 5t-6 11l2 102q-2 8 4 13t10 5q10 0 14-5t6-13l-2-102q2-6-4-11t-12-5v0zM750 790q-4 0-10 5t-4 11l-2 102q2 8 6 13t12 5q6 0 12-5t4-13l2-102q-2-6-6-11t-14-5v0zM822 790q-10 0-14 5t-6 11l2 102q-2 8 4 13t12 5q8 0 12-5t6-13l-2-102q2-6-4-11t-10-5v0zM274-30q-6 0-12 5t-4 13l-2 102q2 6 6 11t14 5q4 0 10-5t4-11l2-102q-2-8-6-13t-12-5v0zM206-30q-8 0-12 5t-6 13l2 102q-2 6 4 11t10 5q10 0 14-5t6-11l-2-102q2-8-4-13t-12-5v0zM342-30q-6 0-12 5t-4 13l-2 102q2 6 6 11t14 5q4 0 10-5t4-11l2-102q-2-8-6-13t-12-5v0zM412-30q-10 0-14 5t-6 13l2 102q-2 6 4 11t12 5q8 0 12-5t6-11l-2-102q2-8-4-13t-10-5v0zM478-30q-6 0-12 5t-4 13l-2 102q2 6 6 11t14 5q4 0 10-5t4-11l2-102q-2-8-6-13t-12-5v0zM548-30q-8 0-12 5t-6 13l2 102q-2 6 4 11t10 5q10 0 14-5t6-11l-2-102q2-8-4-13t-12-5v0zM614-30q-4 0-10 5t-4 13l-2 102q2 6 6 11t12 5q6 0 12-5t4-11l2-102q-2-8-6-13t-14-5v0zM684-30q-8 0-12 5t-6 13l2 102q-2 6 4 11t10 5q10 0 14-5t6-11l-2-102q2-8-4-13t-12-5v0zM750-30q-4 0-10 5t-4 13l-2 102q2 6 6 11t12 5q6 0 12-5t4-11l2-102q-2-8-6-13t-14-5v0zM822-30q-10 0-14 5t-6 13l2 102q-2 6 4 11t12 5q8 0 12-5t6-11l-2-102q2-8-4-13t-10-5v0zM154 124h-100q-10 0-14 5t-6 11q2 8 6 13t14 5h100q8 0 12-5t6-13q-2-6-6-11t-12-5v0zM156 192h-104q-6 0-12 5t-4 13q-2 6 4 11t12 5h104q4 0 10-5t4-11q2-8-4-13t-10-5v0zM154 260h-100q-10 0-14 5t-6 13q2 6 6 11t14 5h100q8 0 12-5t6-11q-2-8-6-13t-12-5v0zM156 328h-104q-6 0-12 5t-4 13q-2 6 4 11t12 5h104q4 0 10-5t4-11q2-8-4-13t-10-5v0zM154 396h-100q-10 0-14 5t-6 13q2 6 6 11t14 5h100q8 0 12-5t6-11q-2-8-6-13t-12-5v0zM156 466h-104q-6 0-12 5t-4 11q-2 8 4 13t12 5h104q4 0 10-5t4-13q2-6-4-11t-10-5v0zM154 534h-100q-10 0-14 5t-6 11q2 8 6 13t14 5h100q8 0 12-5t6-13q-2-6-6-11t-12-5v0zM156 602h-104q-6 0-12 5t-4 11q-2 8 4 13t12 5h104q4 0 10-5t4-13q2-6-4-11t-10-5v0zM154 670h-100q-10 0-14 5t-6 11q2 8 6 13t14 5h100q8 0 12-5t6-13q-2-6-6-11t-12-5v0zM156 738h-104q-6 0-12 5t-4 13q-2 6 4 11t12 5h104q4 0 10-5t4-11q2-8-4-13t-10-5v0zM972 192h-100q-8 0-12 5t-6 13q2 6 6 11t12 5h100q10 0 14-5t6-11q-2-8-6-13t-14-5v0zM974 124h-104q-4 0-10 5t-4 11q-2 8 4 13t10 5h104q6 0 12-5t4-13q2-6-4-11t-12-5v0zM972 260h-100q-8 0-12 5t-6 13q2 6 6 11t12 5h100q10 0 14-5t6-11q-2-8-6-13t-14-5v0zM974 328h-104q-4 0-10 5t-4 13q-2 6 4 11t10 5h104q6 0 12-5t4-11q2-8-4-13t-12-5v0zM972 396h-100q-8 0-12 5t-6 13q2 6 6 11t12 5h100q10 0 14-5t6-11q-2-8-6-13t-14-5v0zM974 466h-104q-4 0-10 5t-4 11q-2 8 4 13t10 5h104q6 0 12-5t4-13q2-6-4-11t-12-5v0zM972 534h-100q-8 0-12 5t-6 11q2 8 6 13t12 5h100q10 0 14-5t6-13q-2-6-6-11t-14-5v0zM974 602h-104q-4 0-10 5t-4 11q-2 8 4 13t10 5h104q6 0 12-5t4-13q2-6-4-11t-12-5v0zM972 670h-100q-8 0-12 5t-6 11q2 8 6 13t12 5h100q10 0 14-5t6-13q-2-6-6-11t-14-5v0zM974 738h-104q-4 0-10 5t-4 13q-2 6 4 11t10 5h104q6 0 12-5t4-11q2-8-4-13t-12-5v0z" />
<glyph unicode="&#xe7c0;" glyph-name="guindaste" d="M264-38q-8 0-12 5t-6 11l2 956q-2 8 4 13t10 5q10 0 14-5t6-13l-2-956q2-6-4-11t-12-5v0zM894 730h-852q-8 0-12 5t-6 11q2 8 6 13t12 5h852q10 0 14-5t6-13q-2-6-6-11t-14-5v0zM868 730h-6l-606 136-144-132q-4-4-12-4t-10 6q-8 4-6 11t4 13l152 138q0 2 5 3t9 1l618-138q6-2 10-8t2-14q0-6-6-9t-10-3v0zM842 234q-4 0-10 5t-4 13l-2 478q2 6 6 11t12 5q6 0 12-5t4-11l2-478q-2-8-6-13t-14-5v0zM982 82h-276q-4 0-10 5t-4 11l-2 136q2 8 6 13t12 5h272q8 0 12-5t6-13l-2-136q2-6-4-11t-10-5v0zM724 116h240l-2 102h-236l-2-102zM384-56h-276q-4 0-10 5t-4 13q-2 6 4 11t10 5h276q6 0 12-5t4-11q2-8-4-13t-12-5v0z" />
<glyph unicode="&#xe7c1;" glyph-name="cerebro-4" horiz-adv-x="1110" d="M306 618h-1t1 0q-8 0-12 5t-6 13q2 18-1 44t-9 52q-10 26-25 50t-45 40q-4 4-7 11t3 13q2 6 10 8t12-2q26-14 44-36t32-50q10-28 17-61t3-71q2-6-4-11t-10-5h-2zM234 448q-16 0-32 2t-24 8q-16 8-16 29v61q2 18 2 42v30q-6 4-20 2t-32-2q-12-2-28-4t-30 0q-8 0-12 5t-6 13q2 6 6 11t14 5q12-2 26 0t26 2q14 2 24 3t20 1q8 0 18-2t14-8q8-4 10-13t6-21q-2-12-1-29t-3-37q0-14-1-33t1-27q8-2 22-3t28-1q16 2 30 3t28 5q4 0 11-4t7-10q4-8-1-14t-11-6q-6-2-27-5t-49-3v0zM322 690q-8 0-12 1t-12 1q-6 0-11 6t-3 12q0 8 6 12t12 4q24-2 52 1t32 3 11-4 5-10q4-8-2-14t-10-6-24-3-46-3h2zM40 250q-10 0-14 5t-6 11q2 8 6 13t14 5q36 0 69 2t59 6q28 4 49 10t39 14q16 10 44 31t50 45q26 24 42 45t18 29q-2 8 4 13t12 5q8-2 12-6t6-12q-2-18-22-46t-52-54q-26-28-56-50t-42-30q-20-8-43-15t-53-13q-28-4-63-6t-73-2v0zM152 44l-5 2t-5 4q-6 6-5 13t5 11q12 10 21 21t23 21q10 16 26 30t28 26q18 12 32 20t34 10q4 0 11-5t5-11q2-8-3-13t-11-5q-14-2-25-9t-25-17q-10-10-24-23t-24-25q-12-12-22-23t-24-21q0-4-4-5t-6-1h-2zM488 324q-18 0-36 4t-32 10q-18 8-31 19t-27 25q-4 4-4 11t6 13q4 4 12 3t10-5q12-12 22-20t26-14q10-6 25-9t29-3q8 0 12-5t6-11q-2-8-6-13t-12-5v0zM320-38q-20 0-36 3t-34 9q-14 4-30 13t-28 21q-48 34-83 80t-61 98q-22 54-35 115t-11 127q-2 88 21 166t63 142q44 64 103 113t135 75q16 8 36 10t36 0q20-4 37-10t33-18q14-10 27-24t19-30q10-16 13-35t5-39l-2-602q2-30-7-59t-23-55q-16-26-37-46t-49-32q-10-6-22-10t-22-6q-14-4-25-5t-25-1h2zM378 900q-12 0-22-2t-22-6q-66-24-123-70t-95-106q-40-60-60-133t-22-155q2-62 13-119t35-107q20-50 54-92t74-76q22-16 44-25t48-11q22-4 48 0t46 16q24 12 41 28t33 38q10 22 18 46t6 52l2 600q-2 16-4 31t-12 27q-4 14-14 24l-18 18q-10 6-17 10t-19 6q-6 4-16 5t-18 1v0zM438 24l-4 2t-6 4q-12 10-21 21t-21 25q-6 14-12 30t-4 36q-2 8 4 13t12 5q8 0 12-5t6-13q-2-14 2-25t10-21q8-10 15-20t21-22q4-4 5-11t-7-13q0-2-4-4t-6-2h-2zM422 576q-4 0-10 4t-4 12q-4 6 2 12t12 6q16 0 22 6t32 40q2 6 10 7t12-3q6-4 7-11t-1-13q-14-18-22-29t-18-17q-6-8-16-11t-22-3h-4zM814 618q-8 0-12 5t-6 11q0 38 5 71t19 61q10 28 30 49t42 37q8 4 14 2t12-8v-13t-8-11q-26-16-43-40t-23-50q-12-26-13-52t-1-44q2-8-4-13t-12-5q-2 0-1 0t-1 0h2zM886 448q-28 0-49 3t-27 5q-6 0-11 6t-1 14q-2 6 5 10t13 4q12-4 26-5t32-3q12 0 27 1t21 3q4 8 2 27t0 33q-4 20-4 37v29q2 12 5 21t11 13q4 6 13 8t17 4h21t23-2h44q8 0 13-5t7-11q-2-8-6-13t-12-5h-48q-20 2-33 2t-21-6v-28t4-42v-61t-16-29q-8-6-25-8t-31-2v0zM798 690q-22 0-45 3t-21 3q-10 0-13 6t-3 14q2 6 7 10t13 4q-2 0 28-3t52-1q10 0 14-4t6-12q0-6-4-12t-12-6q-4 0-10-1t-10-1h-2zM1074 250q-38 0-72 2t-60 6q-30 6-52 12t-42 16q-14 8-43 30t-57 50q-30 26-51 54t-23 46q2 8 6 13t14 5q4 0 10-5t4-13q2-8 19-29t43-45q22-24 49-45t43-29q20-10 40-16t48-10q24-4 57-6t67-2q8 0 12-5t6-13q-2-6-5-11t-13-5v0zM962 44q-6 0-8 1l-6 3q-4 6-11 12t-9 12q-8 6-13 12t-13 12q-8 14-21 26t-23 22q-12 10-23 16t-25 8q-4 0-10 5t-2 13q-2 6 4 11t12 5q18-2 32-10t30-18q12-12 27-26t25-28q12-12 22-24t24-22q2-4 4-11t-6-13q0-2-4-4t-6-2v0zM592 324q-6 0-12 5t-4 13q-2 6 4 11t12 5q44 0 86 17t54 29q4 4 12 5t10-3q8-6 7-13t-3-11q-10-10-27-20t-41-18q-22-8-48-14t-48-6h-2zM788-38h2q-14 0-26 1t-26 5q-10 2-22 6t-22 10q-30 14-54 35t-42 47q-16 26-26 54t-8 58l-2 600q2 22 8 41t18 35q8 16 23 29t27 23q16 10 35 17t41 9q20 4 42 2t36-10q78-26 136-75t102-113q40-64 63-142t21-166q2-64-12-125t-36-115q-28-54-62-100t-82-80q-12-12-29-20t-33-14q-18-6-35-9t-37-3v0zM738 900q-14 0-24-1t-22-5q-8-2-18-6t-14-10q-14-8-24-18t-20-24q-8-12-14-27t-4-31l-2-602q2-24 9-48t23-44q14-22 35-40t45-30q24-10 49-15t51-1q24 2 49 11t43 25q46 34 78 77t58 93q20 50 33 106t11 118q2 82-20 155t-58 133q-42 60-96 106t-124 70q-8 4-21 6t-23 2v0zM668 14l-5 2t-5 4q-6 6-5 13t3 11q14 10 23 21t19 23q6 14 12 27t4 27q2 8 7 13t13 5q6 0 12-5t4-13q2-18-6-36t-16-32q-12-16-23-30t-25-24q0-2-4-4t-6-2h-2zM696 576h-1t1 0q-10 0-22 3t-30 9q-16 8-34 21t-30 35q-6 6-4 13t6 11q8 4 14 3t12-7q22-36 51-45t37-9q10 0 13-6t5-12q-2-8-6-12t-12-4v0z" />
<glyph unicode="&#xe7dc;" glyph-name="contador" d="M982 196h-938q-8 0-12 5t-6 13q2 108 36 198t100 154q62 64 152 99t198 35q112 0 200-35t154-99q62-64 98-154t34-198q2-8-4-13t-10-5h-2zM60 230h906q-4 100-36 180t-94 138q-56 56-140 87t-182 31q-102 0-184-31t-142-87q-58-58-92-138t-34-180h-2zM614 230h-32q-2 14-6 27t-16 21q-8 10-21 15t-25 5q-16 0-27-5t-23-15q-8-8-14-21t-4-27h-36q2 22 9 40t23 32q12 14 31 22t39 8q24 0 41-8t33-22q12-14 21-32t7-40v0zM468 286q-6 0-8 1t-8 5l-124 162q-6 6-4 13t6 11q6 4 12 4t12-6l126-164q6-4 4-11t-6-13q-4 0-5-1t-7-1h2zM178 288h-6l-40 8q-10 2-12 8t-4 14q4 6 9 10t15 2l38-10q10 0 13-6t3-14q-4-6-8-9t-10-3h2zM250 436q-4 0-6 1l-6 3-30 28q-8 4-8 11t4 13q6 4 12 5t14-3l30-28q8-6 7-13t-3-11q-4-4-7-5t-9-1h2zM386 532q-8 0-11 3l-7 7-14 40q-6 8-2 14t10 8q8 4 13 1t11-9l12-40q6-8 2-14t-8-8-5-2h-1zM550 554q-4 0-3 0t-1 0q-6 2-11 7t-3 13l2 42q4 6 8 11t14 3q4 0 10-5t2-13l-2-42q-2-6-6-11t-12-5h2zM704 498h-5t-5 2q-4 4-7 11t3 13l22 36q6 6 12 7t14-3q4-4 6-11t-4-13l-22-36q-4-2-7-4t-9-2h2zM816 374q-8 0-11 2t-7 8q0 6 1 12t9 10l36 20q8 4 13 2t11-8q2-8 1-14t-9-10l-36-20q-4 0-5-1t-5-1h2z" />
<glyph unicode="&#xe7fb;" glyph-name="sol-1" d="M508 180q-60 0-114 23t-92 63q-42 40-65 93t-25 115q2 60 25 114t65 94q38 40 92 63t114 23q62 0 115-23t95-63q38-40 62-94t22-114q2-62-22-115t-62-93q-42-40-95-63t-115-23v0zM510 734q-56 0-103-21t-83-55q-34-36-55-83t-19-101q-2-54 19-101t55-83q36-36 83-56t103-20q52 0 100 20t82 56q36 36 56 83t22 101q-2 54-22 101t-56 83q-34 34-82 55t-100 21v0zM494-46q-4 0-10 5t-4 11l-2 136q2 8 6 13t12 5q6 0 12-5t4-13l2-136q-2-6-6-11t-14-5v0zM496 806q-8 0-12 5t-6 13l2 102q-2 6 4 11t10 5q10 0 14-5t6-11l-2-102q2-8-4-13t-12-5v0zM956 448h-100q-10 0-14 5t-6 13q2 6 6 11t14 5h100q8 0 12-5t6-11q-2-8-6-13t-12-5v0zM138 448h-70q-4 0-10 5t-4 13q-2 6 4 11t10 5h70q6 0 12-5t4-11q2-8-4-13t-12-5v0zM840 104q-2 0-6 1t-4 3l-84 82q-2 4-3 11t5 13q4 4 12 4t10-4l84-82q2-4 3-11t-5-13q-2-2-6-3l-4-1h-2zM236 708q-2 0-6 1t-4 3l-62 60q-4 6-5 13t7 11q2 6 10 6t12-6l62-60q2-4 3-11t-5-13q-2-2-6-3l-4-1h-2zM764 722l-5 1t-5 5q-6 4-5 11t3 13l48 44q2 6 10 6t12-6q6-4 5-11t-3-13l-48-44q0-4-4-5t-6-1h-2zM176 134q-2 0-6 1t-4 3q-8 6-7 13t5 11l68 66q2 6 10 6t12-6q6-4 5-11t-3-13l-68-66q0-2-5-3l-5-1h-2z" />
<glyph unicode="&#xe7fe;" glyph-name="calendario-4" d="M222 764q-8 0-13 5t-5 11v104q0 6 5 11t13 5q6 0 11-5t5-11v-104q0-6-5-11t-11-5v0zM802 764q-6 0-11 5t-5 11v104q0 6 5 11t11 5q8 0 13-5t5-11v-104q0-6-5-11t-13-5v0zM1006-4h-988q-8 0-13 5t-5 11v820q0 8 5 13t13 5h136q6 0 11-5t5-13v-64q0-12 4-22t12-18q6-8 15-12t21-4q10 0 20 4t16 12q8 8 12 18t4 22v64q0 8 5 13t11 5h444q6 0 11-5t5-13v-64q0-12 4-22t12-18q6-8 16-12t20-4q12 0 21 4t15 12q8 8 12 18t4 22v64q0 8 5 13t11 5h136q8 0 13-5t5-13v-820q0-6-5-11t-13-5v0zM34 30h956v784h-102v-46q0-20-7-36t-17-28q-12-12-28-19t-34-7-34 7-26 19q-12 12-19 28t-7 36v46h-408v-46q0-20-7-36t-19-28q-10-12-26-19t-34-7-34 7-28 19q-10 12-17 28t-7 36v46h-102v-784zM990 542h-956q-6 0-11 5t-5 11q0 8 5 13t11 5h956q6 0 11-5t5-13q0-6-5-11t-11-5v0zM224 410q8 0 14-1t12-3 11-5 9-7q4-2 8-7t6-11q2-4 3-10t1-14q0-4-1-10t-3-10q0-4-3-9t-5-9-6-9-8-9q-2-4-6-8l-54-54q2 0 6 1t6 1q4 0 7 1t7 1h52q2 0 4-1t4-3 3-4 1-4v-22h-140v16t2 4q0 2 1 4t3 2l62 62q4 4 7 8t7 8q2 4 5 7t5 7 4 7 2 7q2 4 2 8v15t-2 5q0 4-2 6l-4 4t-4 3-4 3q-4 0-7 1t-7 1q-6 0-11-2t-9-4q-4-4-7-8t-5-10q0-2-1-4t-3-4q-2 0-4-1t-4-1h-4l-18 4q0 8 2 14t6 12q2 6 6 10l8 8q6 4 11 7t11 5 12 2h12zM440 394q0-4-1-7t-3-5-6-3-10-1h-56l-8-44q8 2 14 3t12 1q8 0 15-1t13-5q6-2 11-5t9-7 8-9 6-11 3-12 1-12q0-8-2-16t-4-14q-4-8-7-13t-9-11l-12-8t-12-6-14-4-16-2q-6 0-10 1t-8 1q-4 2-8 3t-8 3l-8 4t-6 4q-4 2-7 4t-5 4l10 16q2 2 4 3t6 1h3t3-2 4-3 6-1q2-2 5-3t5-3q4-2 8-2h8t8 1 8 3q4 0 7 2t5 6q4 2 5 6t3 6q2 4 2 9v9q0 8-2 14t-8 12q-4 4-11 6t-17 2q-6 0-14-1t-16-3l-20 6 16 98h100v-14zM494 204l-3-3t-1-3q-2 0-3-1t-1-3q-2 0-3-1t-3-1h-20l82 210 3 6t5 4q2 0 4 1t6 1h14l-80-210zM608 232h40v132l-28-24q-2 0-3-1l-1-1h-8q-2 0-3 1l-1 1-12 16 62 52h30v-178h36v-26h-112v28zM816 410q6 0 13-1t13-3l10-5t10-7q4-2 7-7t5-11q2-4 3-10t1-14v-10t-2-10-4-9-6-9q-2-4-5-9t-7-9l-62-62q4 0 7 1t7 1q2 0 5 1t7 1h52q2 0 5-1t3-3q2-2 3-4t1-4v-22h-140v12q0 2 1 4t1 4 1 4 3 2l70 70t6 8q4 4 6 7t4 7 4 7 2 7q2 4 3 8t1 8-1 7-3 5q0 4-2 6l-4 4t-4 3-4 3q-4 0-7 1t-5 1q-6 0-12-2t-10-4q-4-4-7-8t-3-10q-2-2-3-4t-3-4l-2-1t-6-1h-4l-18 4q0 8 2 14t6 12 7 10 9 8q4 4 9 7t11 5 12 2h14z" />
<glyph unicode="&#xe803;" glyph-name="navegador-2" d="M1006 72h-990q-6 0-12 5t-4 13l-2 716q2 8 6 13t14 5h986q10 0 14-5t6-13l-2-716q2-8-4-13t-12-5v0zM32 106h958l-2 684h-954l-2-684zM990 618h-958q-4 0-10 5t-4 13q-2 6 4 11t10 5h958q4 0 10-5t4-11q2-8-4-13t-10-5v0zM176 738q2-8-5-15t-13-7q-12 0-17 7t-7 15q2 8 7 15t17 7q6 0 13-7t5-15v0zM264 738q-2-8-7-15t-17-7q-6 0-13 7t-5 15q-2 8 5 15t13 7q12 0 17-7t7-15v0zM348 738q2-8-6-15t-14-7q-10 0-16 7t-8 15q2 8 8 15t16 7q6 0 14-7t6-15v0zM872 218q-4 0-6 2t-8 4l-148 150q-6 6-5 13t3 11q6 6 13 6t13-6l148-150q8-4 7-12t-5-12q-4-2-6-4t-8-2h2zM722 218q-6 0-8 2t-6 4q-2 4-3 12t5 12l148 150q8 6 14 6t12-6q4-4 5-11t-7-13l-148-150q-4-2-6-4t-8-2h2z" />
<glyph unicode="&#xe80f;" glyph-name="certificado-1" d="M922-64h-820q-6 0-11 5t-5 13v988q0 8 5 13t11 5h820q6 0 11-5t5-13v-988q0-8-5-13t-11-5v0zM120-30h784v956h-784v-956zM520 180q-30 0-56 11t-46 31-31 46-11 56 11 57 31 45q20 20 46 32t56 12 56-12 46-32q20-18 32-45t12-57-12-56-32-46-46-31-56-11v0zM520 436q-22 0-43-9t-35-25q-16-14-24-34t-8-44q0-22 8-43t24-35q14-16 35-24t43-8q24 0 44 8t34 24q16 14 25 35t9 43q0 24-9 44t-25 34q-14 16-34 25t-44 9v0zM478 8q-4 0-7 2t-5 4l-78 78-118-40q-6-2-11 0t-9 6q-2 4-3 9t3 11l128 212q4 6 10 8t12-2 8-11-2-13l-104-174 84 30q6 0 10-1t8-5l64-64 36 142q2 8 8 11t12 1q8 0 11-7t1-13l-42-170q-2-6-5-9t-7-3q-2-2-3-2h-1zM562 8h-1t-3 2q-4 0-7 4t-5 8l-42 170q-2 8 2 14t10 6q6 2 12-1t8-11l36-142 64 64q4 4 8 5t10 1l84-28-104 172q-4 6-2 13t8 11 13 2 9-8l128-212q4-6 3-11t-3-9q-4-4-9-6t-11 0l-118 40-78-78q-2-2-5-4t-7-2v0zM700 756h-342q-6 0-11 5t-5 11q0 8 5 13t11 5h342q6 0 11-5t5-13q0-6-5-11t-11-5v0zM700 550h-342q-6 0-11 5t-5 13q0 6 5 11t11 5h342q6 0 11-5t5-11q0-8-5-13t-11-5v0zM802 652h-580q-8 0-13 5t-5 13q0 6 5 11t13 5h580q8 0 13-5t5-11q0-8-5-13t-13-5v0z" />
<glyph unicode="&#xe810;" glyph-name="certificado-2" d="M1006 106h-990q-6 0-12 5t-4 13l-2 648q2 8 6 13t14 5h986q10 0 14-5t6-13l-2-648q2-8-4-13t-12-5v0zM32 140h958l-2 616h-954l-2-616zM614 516h-240q-6 0-12 5t-4 13q-2 6 4 11t12 5h240q6 0 12-5t4-11q2-8-4-13t-12-5v0zM748 380h-510q-8 0-12 5t-6 11q2 8 6 13t12 5h510q10 0 14-5t6-13q-2-6-6-11t-14-5v0zM750 312h-514q-4 0-10 5t-4 11q-2 8 4 13t10 5h514q6 0 12-5t4-13q2-6-4-11t-12-5v0zM852 448h-682q-8 0-12 5t-6 13q2 6 6 11t12 5h682q8 0 12-5t6-11q-2-8-6-13t-12-5v0zM904 210h-786q-6 0-12 5t-4 11l-2 444q2 6 6 11t14 5h782q10 0 14-5t6-11l-2-444q2-6-4-11t-12-5v0zM134 244h754l-2 408h-750l-2-408z" />
<glyph unicode="&#xe81b;" glyph-name="pessoa-7" d="M512 220q-46 0-87 24t-73 60q-30 38-50 84t-22 92q-10 2-19 7t-15 13-10 17-4 19v86q0 18 13 32t21 20v76q0 30 10 56t28 46 43 31 53 11q12 6 55 19t93 13q40 0 70-11t50-33q22-24 32-57t10-75v-68q22-2 35-6t21-12 10-18 2-24v-86q0-10-3-19t-7-17q-6-8-13-13t-17-7q-2-46-21-93t-49-83-70-60-86-24v0zM548 892q-50 0-94-15l-44-15q-2 0-3-1t-3-1q-24 0-42-8t-32-22q-14-16-22-36t-8-44v-86q0-4-2-8t-6-6q-8-4-17-13t-9-15v-86q0-10 9-18t21-8q8 0 13-5t5-11q0-40 15-83t43-77q26-34 62-57t78-23q40 0 75 23t61 57 41 77 15 83q0 6 5 11t13 5q12 0 17 9t5 17v86q0 14-6 20t-44 6q-8 0-13 5t-5 11v86q0 36-8 63t-24 45-40 26-56 8v0zM94-10q-6 0-11 5t-5 13q0 48 17 91t47 75 71 50 87 18h44q2 0 4-1t4-1l162-102 162 102q2 0 4 1t4 1h44q46 0 86-18t70-50q28-30 45-73t17-91q0-8-5-13t-11-5q-8 0-13 5t-5 13q0 42-14 78t-38 64q-26 26-60 41t-72 15h-38l-168-104q-4-2-9-2t-9 2l-166 104h-38q-40 0-74-16t-60-42q-26-28-40-64t-14-78q0-8-5-13t-13-5v0zM778 72h-68v68h-34v-68h-68v-34h68v-68h34v68h68v34z" />
<glyph unicode="&#xe81d;" glyph-name="dinheiro-4" d="M514 162q-38 0-68 10t-52 28q-20 18-32 44t-12 58q0 6 5 11t13 5q6 0 11-5t5-11q0-30 12-50t30-32 41-18 47-6 47 6 41 18 30 32 12 50q0 24-7 40t-21 28q-14 14-35 25t-51 27l-46 22q-32 16-57 29t-41 29q-18 18-27 39t-9 53 12 58 34 44 52 28 66 10 66-10 52-28q20-18 32-44t12-58q0-6-5-11t-13-5q-6 0-11 5t-5 11q0 30-12 50t-30 32-41 18-45 6q-24 0-47-6t-41-18-30-32-12-50q0-24 7-40t21-28q14-14 35-25t51-27l46-22q32-16 56-29t42-29q16-18 26-39t10-53-12-58-34-44q-20-18-51-28t-67-10v0zM514 700q-8 0-13 5t-5 13v72q0 6 5 11t13 5q6 0 11-5t5-11v-72q0-8-5-13t-11-5v0zM514 90q-8 0-13 5t-5 11v74q0 6 5 11t13 5q6 0 11-5t5-11v-74q0-6-5-11t-11-5v0zM512 926q98 0 185-38t153-102q64-66 102-153t38-185-38-185-102-153q-66-64-153-102t-185-38-185 38-153 102q-64 66-102 153t-38 185 38 185 102 153q66 64 153 102t185 38v0zM512 960q-106 0-199-40t-163-110-110-163-40-199 40-199 110-163 163-110 199-40 199 40 163 110 110 163 40 199-40 199-110 163-163 110-199 40v0 0z" />
<glyph unicode="&#xe81e;" glyph-name="dinheiro-5" d="M512 66q-50 0-90 13t-68 37q-30 24-45 59t-15 77q0 6 5 11t11 5q8 0 13-5t5-11q0-42 16-71t42-47 59-26 67-8 67 8 59 26 42 47 16 71q0 34-9 57t-29 41q-18 18-49 34t-73 38l-64 30q-42 22-76 40t-56 40-34 51-12 71 16 76 44 58 69 38 89 14q50 0 89-13t67-39q28-24 44-58t16-76q0-8-5-13t-13-5q-6 0-11 5t-5 13q0 42-16 71t-42 47-59 26-65 8-65-8-59-26-43-47-17-71q0-34 9-57t29-41q18-20 49-36t73-36l64-32q42-22 76-40t56-40 34-50 12-70-15-77-45-59q-28-24-68-37t-90-13v0zM508 806q-8 0-13 5t-5 13v102q0 6 5 11t13 5q6 0 11-5t5-11v-102q0-8-5-13t-11-5v0zM508-46q-8 0-13 5t-5 11v102q0 8 5 13t13 5q6 0 11-5t5-13v-102q0-6-5-11t-11-5v0z" />
</font>
</defs>
</svg>
